<?xml version="1.0" standalone="no"?>
<!DOCTYPE svg PUBLIC "-//W3C//DTD SVG 1.1//EN" "http://www.w3.org/Graphics/SVG/1.1/DTD/svg11.dtd">
<svg xmlns="http://www.w3.org/2000/svg">
<metadata>Generated by Fontastic.me</metadata>
<defs>
<font id="meteotemplate" horiz-adv-x="512">
<font-face font-family="meteotemplate" units-per-em="512" ascent="480" descent="-32"/>
<missing-glyph horiz-adv-x="512" />

<glyph glyph-name="1h" unicode="&#97;" d="M213 28c-94 18-168 92-186 186-4 21-4 67 0 88 18 94 93 169 187 187 21 4 67 4 88 0 94-18 169-93 187-187 4-21 4-67 0-88-18-94-93-169-187-187-20-3-70-3-89 1z m84 40c16 4 46 15 61 24 15 9 40 32 53 49 16 21 25 40 32 64 4 17 5 23 5 51 0 38-4 59-18 85-29 58-78 94-144 106-36 6-83-2-119-20-23-12-56-42-70-64-11-17-25-54-29-73-13-76 20-151 87-196 11-8 38-19 57-24 28-7 54-8 85-2z m-53 13c-5 7-7 21-3 29 3 5 4 6 13 6 7 0 12-2 16-5 7-4 7-5 7-14-1-10-8-18-16-18-2 0-6 0-8-1-3-1-6 0-9 3z m83 24c-9 7-10 9-10 14 0 10 14 23 23 23 5 0 17-13 17-20 1-8-4-16-13-20-9-3-9-3-17 3z m-165 2c-9 8-10 9-8 16 1 9 13 19 22 19 7 0 9-1 12-8 2-4 5-7 6-7 3 3-1-13-5-17-10-10-17-11-27-3z m-58 55c-3 3-9 20-7 25 0 2 4 6 7 9 7 6 12 6 24-2 7-3 8-5 8-11 0-9-5-18-12-20-8-3-16-3-20-1z m278 6c-6 7-6 9-6 15 2 8 5 13 14 16 8 4 12 2 19-5 8-8 10-18 4-20-2-1-3-2-2-3 2-2-10-10-16-10-4 0-8 2-13 7z m-158 44c0 2-1 6 0 9 1 5 1 6 11 6l11 1 0 32c0 18-1 33-1 33-1 0-5-2-10-4-9-6-12-5-12 5 0 6 2 7 14 15 10 7 15 8 23 8l10 0 0-89 9 0c8 0 10-1 11-5 0-3 0-7 0-9-2-5-3-5-33-5-25 0-32 1-33 3z m-139 30c-5 3-10 14-10 21 0 6 8 15 16 16 5 1 8 1 12-2 4-3 7-5 9-5 7 0 2-27-6-29-9-3-18-3-21-1z m325-1c-10 2-13 27-5 35 5 5 19 4 27-2 6-4 7-5 6-14 0-9-1-11-5-14-6-4-17-6-23-5z m-306 84c0 1-3 5-5 9-3 4-6 9-6 12 0 7 13 18 21 18 6 0 19-10 21-15 1-5-5-18-10-22-3-3-21-4-21-2z m281 2c-3 2-5 4-4 5 1 0 0 2-2 3-3 3-4 9-1 11 0 1 1 2 1 3 0 4 11 11 17 12 6 1 8 1 13-4 3-3 5-7 5-8 0-1 1-2 3-2 5 0-4-18-11-22-6-3-14-2-21 2z m-222 57c-2 1-3 2-3 3 1 0-1 4-3 8-4 11-3 13 5 21 7 8 11 8 25 1 6-3 7-5 8-11 1-8-5-19-11-22-6-2-17-3-21 0z m166-1c-5 1-14 17-14 23 0 2 3 7 6 10 8 9 19 9 29 0 6-6 7-8 6-13-2-14-15-23-27-20z m-84 22c-4 5-7 14-7 20 0 9 7 16 16 17 6 1 9 0 16-6 8-6 9-7 7-14 0-5-2-9-3-9-1-1-2-2-2-4 0-5-23-9-27-4z"/>
<glyph glyph-name="2weeks" unicode="&#98;" d="M46 35c-11 6-19 13-24 24l-6 9 0 343 6 10c5 12 15 21 27 25 4 1 17 2 28 3l21 0 0-17c1-32 15-49 41-49 12 0 19 3 27 12 8 8 10 15 10 35l0 19 162 0 0-11c0-21 3-35 11-42 8-9 17-13 30-13 12 0 19 3 27 12 9 9 10 14 11 34l1 20 20 0c25 0 33-3 45-14 18-16 17-7 17-196 0-121-1-168-3-174-3-11-16-25-27-30-9-4-9-4-212-4-202 0-204 0-212 4z m416 51c2 5 3 19 3 119l0 114-414 0 1-115c0-94 1-116 3-119 3-3 19-3 203-3l201 0z m-283 67l0 10 12 0 12 1 0 37c0 20-1 37-1 37 0 0-5-3-10-6-11-6-13-6-15 0-2 9 1 13 16 23 13 9 15 9 25 9l10-1 1-50 0-49 11 0c9 0 10-1 11-5 1-3 1-7 0-10l0-5-37 0-36-1z m134 2l0 13-25 0-25 1 0 11c-1 10 0 12 19 46 11 19 21 36 22 37 1 1 9 1 18 1l15-1 1-37 0-37 7-1c6-1 6-1 6-10 0-9 0-9-6-10-7 0-7 0-7-12l-1-12-12 0-12-1z m0 58c0 14 0 25 0 25-1 0-26-43-28-48 0-1 6-2 14-2l14 0z m-187 190c-12 6-14 13-13 49l1 31 6 7c13 12 34 8 41-8 2-5 3-15 3-35 0-24-1-29-4-35-8-12-21-16-34-9z m238 1c-11 7-12 12-12 44 0 33 2 39 13 46 12 7 29 2 35-10 5-9 5-64 0-72-7-13-23-16-36-8z"/>
<glyph glyph-name="3days" unicode="&#99;" d="M46 35c-11 6-19 13-24 24l-6 9 0 343 6 10c5 12 15 21 27 25 4 1 17 2 28 3l21 0 0-17c1-32 15-49 41-49 12 0 19 3 27 12 8 8 10 15 10 35l0 19 162 0 0-11c0-21 3-35 11-42 8-9 17-13 30-13 12 0 19 3 27 12 9 9 10 14 11 34l1 20 20 0c25 0 33-3 45-14 18-16 17-7 17-196 0-121-1-168-3-174-3-11-16-25-27-30-9-4-9-4-212-4-202 0-204 0-212 4z m416 51c2 5 3 19 3 119l0 114-414 0 1-115c0-94 1-116 3-119 3-3 19-3 203-3l201 0z m-230 58c-5 2-10 4-11 6-2 3-2 17 0 19 1 0 7-1 13-3 14-6 25-5 32 3 6 7 6 12-2 20-5 5-7 6-18 6-13 0-17 2-17 9 0 9 2 11 13 11 11 0 21 4 23 9 7 17-11 26-31 16-11-6-13-4-12 7 0 7 1 9 9 13 12 7 38 7 49 2 16-9 19-35 6-48l-7-7 6-3c10-5 14-13 14-25 0-18-8-29-24-35-11-3-31-3-43 0z m-106 259c-12 6-14 13-13 49l1 31 6 7c13 12 34 8 41-8 2-5 3-15 3-35 0-24-1-29-4-35-8-12-21-16-34-9z m238 1c-11 7-12 12-12 44 0 33 2 39 13 46 12 7 29 2 35-10 5-9 5-64 0-72-7-13-23-16-36-8z"/>
<glyph glyph-name="3h" unicode="&#100;" d="M213 28c-94 18-168 92-186 186-4 21-4 67 0 88 18 94 93 169 187 187 21 4 67 4 88 0 94-18 169-93 187-187 4-21 4-67 0-88-18-94-93-169-187-187-20-3-70-3-89 1z m84 40c16 4 46 15 61 24 15 9 40 32 53 49 16 21 25 40 32 64 4 17 5 23 5 51 0 38-4 59-18 85-29 58-78 94-144 106-36 6-83-2-119-20-23-12-56-42-70-64-11-17-25-54-29-73-13-76 20-151 87-196 11-8 38-19 57-24 28-7 54-8 85-2z m-53 13c-5 7-7 21-3 29 3 5 4 6 13 6 7 0 12-2 16-5 7-4 7-5 7-14-1-10-8-18-16-18-2 0-6 0-8-1-3-1-6 0-9 3z m83 24c-9 7-10 9-10 14 0 10 14 23 23 23 5 0 17-13 17-20 1-8-4-16-13-20-9-3-9-3-17 3z m-165 2c-9 8-10 9-8 16 1 9 13 19 22 19 7 0 9-1 12-8 2-4 5-7 6-7 3 3-1-13-5-17-10-10-17-11-27-3z m-58 55c-3 3-9 20-7 25 0 2 4 6 7 9 7 6 12 6 24-2 7-3 8-5 8-11 0-9-5-18-12-20-8-3-16-3-20-1z m278 6c-6 7-6 9-6 15 2 8 5 13 14 16 8 4 12 2 19-5 8-8 10-18 4-20-2-1-3-2-2-3 2-2-10-10-16-10-4 0-8 2-13 7z m-147 41c-14 4-16 6-16 16 0 10 1 10 11 6 21-9 40 1 32 17-2 5-12 8-23 8-8 0-9 1-11 5-2 9 0 11 13 12 12 1 17 5 20 13 1 3 0 6-4 10-6 6-11 6-23 1-5-3-10-4-11-4-1 0-2 3-1 8 0 7 1 9 7 12 4 3 12 5 20 5 12 1 16 1 23-3 7-4 10-7 12-13 4-11 2-23-6-30l-6-6 7-3c11-6 15-24 8-37-7-13-33-21-52-17z m-150 33c-5 3-10 14-10 21 0 6 8 15 16 16 5 1 8 1 12-2 4-3 7-5 9-5 7 0 2-27-6-29-9-3-18-3-21-1z m325-1c-10 2-13 27-5 35 5 5 19 4 27-2 6-4 7-5 6-14 0-9-1-11-5-14-6-4-17-6-23-5z m-306 84c0 1-3 5-5 9-3 4-6 9-6 12 0 7 13 18 21 18 6 0 19-10 21-15 1-5-5-18-10-22-3-3-21-4-21-2z m281 2c-3 2-5 4-4 5 1 0 0 2-2 3-3 3-4 9-1 11 0 1 1 2 1 3 0 4 11 11 17 12 6 1 8 1 13-4 3-3 5-7 5-8 0-1 1-2 3-2 5 0-4-18-11-22-6-3-14-2-21 2z m-222 57c-2 1-3 2-3 3 1 0-1 4-3 8-4 11-3 13 5 21 7 8 11 8 25 1 6-3 7-5 8-11 1-8-5-19-11-22-6-2-17-3-21 0z m166-1c-5 1-14 17-14 23 0 2 3 7 6 10 8 9 19 9 29 0 6-6 7-8 6-13-2-14-15-23-27-20z m-84 22c-4 5-7 14-7 20 0 9 7 16 16 17 6 1 9 0 16-6 8-6 9-7 7-14 0-5-2-9-3-9-1-1-2-2-2-4 0-5-23-9-27-4z"/>
<glyph glyph-name="3months" unicode="&#101;" d="M46 35c-11 6-19 13-24 24l-6 9 0 343 6 10c5 12 15 21 27 25 4 1 17 2 28 3l21 0 0-17c1-32 15-49 41-49 12 0 19 3 27 12 8 8 10 15 10 35l0 19 162 0 0-11c0-21 3-35 11-42 8-9 17-13 30-13 12 0 19 3 27 12 9 9 10 14 11 34l1 20 20 0c25 0 33-3 45-14 18-16 17-7 17-196 0-121-1-168-3-174-3-11-16-25-27-30-9-4-9-4-212-4-202 0-204 0-212 4z m416 51c2 5 3 19 3 119l0 114-414 0 1-115c0-94 1-116 3-119 3-3 19-3 203-3l201 0z m-311 57c-12 4-14 6-14 17 0 12-1 11 17 5 17-7 33 0 33 13 0 11-7 15-24 17l-15 1 0 18 13 1c11 1 14 2 18 7 6 7 7 11 1 18-4 6-16 6-28 0-5-2-9-4-11-4-1 0-2 4-2 8 0 11 4 15 18 19 20 6 38 3 48-8 5-6 6-9 6-19 0-13-5-24-13-26-4-2-4-2 3-6 12-5 16-14 15-28 0-14-7-24-19-30-8-4-37-6-46-3z m87 58c0 43 0 59 2 61 4 3 30 3 36-1 3-2 8-15 17-39 7-20 13-37 14-38 1-1 8 15 16 36 9 25 15 39 18 41 5 4 30 4 33 1 2-2 3-18 3-61l0-58-12 1-12 0-1 46-1 45-16-46-16-46-12 1-12 0-16 46-16 46-2-92-12 0-11-1z m-112 202c-12 6-14 13-13 49l1 31 6 7c13 12 34 8 41-8 2-5 3-15 3-35 0-24-1-29-4-35-8-12-21-16-34-9z m238 1c-11 7-12 12-12 44 0 33 2 39 13 46 12 7 29 2 35-10 5-9 5-64 0-72-7-13-23-16-36-8z"/>
<glyph glyph-name="3paramgraph" unicode="&#102;" d="M25 251l0 228 34 0 0-422 422 0 0-34-456 0z m383-181c-2 0-6 4-9 8-5 5-6 8-6 18 0 10 1 13 7 20 6 7 8 8 19 9 12 0 13 0 21-7l9-8-1-15c0-12-1-15-5-19-3-2-8-6-10-7-6-2-19-2-25 1z m-231 84c-21 13-21 45 1 59 18 12 41 5 51-15 5-9 5-18 1-30-3-8-5-11-13-15-14-8-27-8-40 1z m187 113c-12 10-16 18-16 32 0 14 4 22 14 31 16 14 36 16 53 4 5-4 11-10 12-12 1-3 3-5 4-5 1 0 1-8 1-18 0-18 0-19-8-27-10-12-16-14-34-14-17 0-17 0-26 9z m-253 30c-15 8-22 15-30 29-6 10-6 12-6 29 0 16 1 20 5 29 26 49 96 49 120 0 10-21 8-46-4-63-2-3-3-6-3-7-1-2-17-14-26-19-6-3-12-4-27-4-16 0-19 0-29 6z m361 124c1 1 5 1 7 0 2 0 0-1-4-1-4 0-5 1-3 1z"/>
<glyph glyph-name="6h" unicode="&#103;" d="M213 28c-94 18-168 92-186 186-4 21-4 67 0 88 18 94 93 169 187 187 21 4 67 4 88 0 94-18 169-93 187-187 4-21 4-67 0-88-18-94-93-169-187-187-20-3-70-3-89 1z m84 40c16 4 46 15 61 24 15 9 40 32 53 49 16 21 25 40 32 64 4 17 5 23 5 51 0 38-4 59-18 85-29 58-78 94-144 106-36 6-83-2-119-20-23-12-56-42-70-64-11-17-25-54-29-73-13-76 20-151 87-196 11-8 38-19 57-24 28-7 54-8 85-2z m-53 13c-5 7-7 21-3 29 3 5 4 6 13 6 7 0 12-2 16-5 7-4 7-5 7-14-1-10-8-18-16-18-2 0-6 0-8-1-3-1-6 0-9 3z m83 24c-9 7-10 9-10 14 0 10 14 23 23 23 5 0 17-13 17-20 1-8-4-16-13-20-9-3-9-3-17 3z m-165 2c-9 8-10 9-8 16 1 9 13 19 22 19 7 0 9-1 12-8 2-4 5-7 6-7 3 3-1-13-5-17-10-10-17-11-27-3z m-58 55c-3 3-9 20-7 25 0 2 4 6 7 9 7 6 12 6 24-2 7-3 8-5 8-11 0-9-5-18-12-20-8-3-16-3-20-1z m278 6c-6 7-6 9-6 15 2 8 5 13 14 16 8 4 12 2 19-5 8-8 10-18 4-20-2-1-3-2-2-3 2-2-10-10-16-10-4 0-8 2-13 7z m-140 41c-17 5-23 19-23 48-1 26 3 38 13 49 10 10 22 14 38 12 12-1 16-4 16-12 0-6-4-9-9-7-2 1-8 1-12 1-11 1-20-7-23-19l-2-8 8 3c8 3 25 2 33-3 14-9 15-40 2-54-8-9-28-14-41-10z m20 19c5 2 9 13 7 21-1 9-8 12-19 10l-7-2 0-12c0-10 1-12 5-16 5-4 9-4 14-1z m-177 14c-5 3-10 14-10 21 0 6 8 15 16 16 5 1 8 1 12-2 4-3 7-5 9-5 7 0 2-27-6-29-9-3-18-3-21-1z m325-1c-10 2-13 27-5 35 5 5 19 4 27-2 6-4 7-5 6-14 0-9-1-11-5-14-6-4-17-6-23-5z m-306 84c0 1-3 5-5 9-3 4-6 9-6 12 0 7 13 18 21 18 6 0 19-10 21-15 1-5-5-18-10-22-3-3-21-4-21-2z m281 2c-3 2-5 4-4 5 1 0 0 2-2 3-3 3-4 9-1 11 0 1 1 2 1 3 0 4 11 11 17 12 6 1 8 1 13-4 3-3 5-7 5-8 0-1 1-2 3-2 5 0-4-18-11-22-6-3-14-2-21 2z m-222 57c-2 1-3 2-3 3 1 0-1 4-3 8-4 11-3 13 5 21 7 8 11 8 25 1 6-3 7-5 8-11 1-8-5-19-11-22-6-2-17-3-21 0z m166-1c-5 1-14 17-14 23 0 2 3 7 6 10 8 9 19 9 29 0 6-6 7-8 6-13-2-14-15-23-27-20z m-84 22c-4 5-7 14-7 20 0 9 7 16 16 17 6 1 9 0 16-6 8-6 9-7 7-14 0-5-2-9-3-9-1-1-2-2-2-4 0-5-23-9-27-4z"/>
<glyph glyph-name="6m" unicode="&#104;" d="M46 35c-11 6-19 13-24 24l-6 9 0 343 6 10c5 12 15 21 27 25 4 1 17 2 28 3l21 0 0-17c1-32 15-49 41-49 12 0 19 3 27 12 8 8 10 15 10 35l0 19 162 0 0-11c0-21 3-35 11-42 8-9 17-13 30-13 12 0 19 3 27 12 9 9 10 14 11 34l1 20 20 0c25 0 33-3 45-14 18-16 17-7 17-196 0-121-1-168-3-174-3-11-16-25-27-30-9-4-9-4-212-4-202 0-204 0-212 4z m416 51c2 5 3 19 3 119l0 114-413 0-2-7c-2-14-1-220 1-220 1 0 2-1 2-3 0-7 0-7 205-7l201 0z m-303 58c-10 4-17 14-20 27-4 16-2 55 4 67 9 21 31 31 55 26 13-2 15-4 15-12 0-10-2-11-14-8-16 4-26 0-32-13-6-11-7-17-2-15 2 1 11 2 18 3 17 1 25-3 32-15 8-13 4-43-7-53-11-9-36-13-49-7z m31 23c5 7 6 21 1 27-6 9-29 5-29-5 0-8 4-20 7-24 5-5 16-4 21 2z m48 34c0 43 0 59 2 61 4 3 30 3 36-1 3-2 8-15 17-39 7-20 13-37 14-38 1-1 8 15 16 36 9 25 15 39 18 41 5 4 30 4 33 1 2-2 3-18 3-61l0-58-12 1-12 0-1 46-1 45-16-46-16-46-12 1-12 0-16 46-16 46-2-92-12 0-11-1z m-112 202c-12 6-14 13-13 49l1 31 6 7c13 12 34 8 41-8 2-5 3-15 3-35 0-24-1-29-4-35-8-12-21-16-34-9z m238 1c-11 7-12 12-12 44 0 33 2 39 13 46 12 7 29 2 35-10 5-9 5-64 0-72-7-13-23-16-36-8z"/>
<glyph glyph-name="10days" unicode="&#105;" d="M46 35c-11 6-19 13-24 24l-6 9 0 343 6 10c5 12 15 21 27 25 4 1 17 2 28 3l21 0 0-17c1-32 15-49 41-49 12 0 19 3 27 12 8 8 10 15 10 35l0 19 162 0 0-11c0-21 3-35 11-42 8-9 17-13 30-13 12 0 19 3 27 12 9 9 10 14 11 34l1 20 20 0c25 0 33-3 45-14 18-16 17-7 17-196 0-121-1-168-3-174-3-11-16-25-27-30-9-4-9-4-212-4-202 0-204 0-212 4z m416 51c2 5 3 19 3 119l0 114-413 0-2-7c-2-14-1-220 1-220 1 0 2-1 2-3 0-7 0-7 205-7l201 0z m-174 58c-16 7-22 21-23 52-2 35 6 57 22 65 4 2 12 4 19 5 23 1 37-11 42-34 4-16 2-54-3-65-4-10-12-19-21-23-8-4-28-3-36 0z m26 20c7 4 10 14 10 38 0 12-1 26-3 30-4 16-19 18-26 4-5-10-6-52-1-63 4-10 11-13 20-9z m-135-11l0 10 12 0 12 1 0 37c0 20-1 37-1 37 0 0-5-3-10-6-11-6-13-6-15 0-2 9 1 13 16 23 13 9 15 9 25 9l10-1 1-50 0-49 11 0c9 0 10-1 11-5 1-3 1-7 0-10l0-5-37 0-36-1z m-53 250c-12 6-14 13-13 49l1 31 6 7c13 12 34 8 41-8 2-5 3-15 3-35 0-24-1-29-4-35-8-12-21-16-34-9z m238 1c-11 7-12 12-12 44 0 33 2 39 13 46 12 7 29 2 35-10 5-9 5-64 0-72-7-13-23-16-36-8z"/>
<glyph glyph-name="12h" unicode="&#106;" d="M213 28c-94 18-168 92-186 186-4 21-4 67 0 88 18 94 93 169 187 187 21 4 67 4 88 0 94-18 169-93 187-187 4-21 4-67 0-88-18-94-93-169-187-187-20-3-70-3-89 1z m84 40c16 4 46 15 61 24 15 9 40 32 53 49 16 21 25 40 32 64 4 17 5 23 5 51 0 38-4 59-18 85-29 58-78 94-144 106-36 6-83-2-119-20-23-12-56-42-70-64-11-17-25-54-29-73-13-76 20-151 87-196 11-8 38-19 57-24 28-7 54-8 85-2z m-53 13c-5 7-7 21-3 29 3 5 4 6 13 6 7 0 12-2 16-5 7-4 7-5 7-14-1-10-8-18-16-18-2 0-6 0-8-1-3-1-6 0-9 3z m83 24c-9 7-10 9-10 14 0 10 14 23 23 23 5 0 17-13 17-20 1-8-4-16-13-20-9-3-9-3-17 3z m-165 2c-9 8-10 9-8 16 1 9 13 19 22 19 7 0 9-1 12-8 2-4 5-7 6-7 3 3-1-13-5-17-10-10-17-11-27-3z m-58 55c-3 3-9 20-7 25 0 2 4 6 7 9 7 6 12 6 24-2 7-3 8-5 8-11 0-9-5-18-12-20-8-3-16-3-20-1z m278 6c-6 7-6 9-6 15 2 8 5 13 14 16 8 4 12 2 19-5 8-8 10-18 4-20-2-1-3-2-2-3 2-2-10-10-16-10-4 0-8 2-13 7z m-200 44c-1 2-1 6-1 9 1 5 1 6 12 6l10 1 0 32c0 18 0 33-1 33 0 0-5-2-9-4-10-6-12-5-12 5 0 6 1 7 13 15 11 7 15 8 23 8l11 0 0-89 9 0c8 0 9-1 10-5 1-3 1-7 0-9-1-5-3-5-33-5-25 0-32 1-32 3z m80 2c-4 8-1 15 15 31 25 27 30 39 21 49-6 5-12 5-25-1-6-3-7-3-9 0-6 10 2 20 19 24 35 8 55-15 41-45-3-7-10-18-19-27l-15-15 21 0c20 0 20-1 21-5 1-3 1-7 1-10-1-5-1-5-35-5l-34-1z m-177 28c-5 3-10 14-10 21 0 6 8 15 16 16 5 1 8 1 12-2 4-3 7-5 9-5 7 0 2-27-6-29-9-3-18-3-21-1z m325-1c-10 2-13 27-5 35 5 5 19 4 27-2 6-4 7-5 6-14 0-9-1-11-5-14-6-4-17-6-23-5z m-306 84c0 1-3 5-5 9-3 4-6 9-6 12 0 7 13 18 21 18 6 0 19-10 21-15 1-5-5-18-10-22-3-3-21-4-21-2z m281 2c-3 2-5 4-4 5 1 0 0 2-2 3-3 3-4 9-1 11 0 1 1 2 1 3 0 4 11 11 17 12 6 1 8 1 13-4 3-3 5-7 5-8 0-1 1-2 3-2 5 0-4-18-11-22-6-3-14-2-21 2z m-222 57c-2 1-3 2-3 3 1 0-1 4-3 8-4 11-3 13 5 21 7 8 11 8 25 1 6-3 7-5 8-11 1-8-5-19-11-22-6-2-17-3-21 0z m166-1c-5 1-14 17-14 23 0 2 3 7 6 10 8 9 19 9 29 0 6-6 7-8 6-13-2-14-15-23-27-20z m-84 22c-4 5-7 14-7 20 0 9 7 16 16 17 6 1 9 0 16-6 8-6 9-7 7-14 0-5-2-9-3-9-1-1-2-2-2-4 0-5-23-9-27-4z"/>
<glyph glyph-name="12m" unicode="&#107;" d="M46 35c-11 6-19 13-24 24l-6 9 0 343 6 10c5 12 15 21 27 25 4 1 17 2 28 3l21 0 0-17c1-32 15-49 41-49 12 0 19 3 27 12 8 8 10 15 10 35l0 19 162 0 0-11c0-21 3-35 11-42 8-9 17-13 30-13 12 0 19 3 27 12 9 9 10 14 11 34l1 20 20 0c25 0 33-3 45-14 18-16 17-7 17-196 0-121-1-168-3-174-3-11-16-25-27-30-9-4-9-4-212-4-202 0-204 0-212 4z m416 51c2 5 3 19 3 119l0 114-413 0-2-7c-2-14-1-220 1-220 1 0 2-1 2-3 0-7 0-7 205-7l201 0z m-367 63c-1 3 0 7 1 10 2 4 4 5 14 5l11 0 0 37c0 20-1 37-1 37-1 0-6-3-11-6-11-7-15-5-14 5 0 7 1 9 15 17 12 9 15 10 25 10l10 0 0-100 11 0c9 0 10-1 12-5 2-3 2-7 1-10l-1-6-72 0z m91-2c-2 5-2 13 1 17 1 3 10 13 19 23 17 18 23 27 25 39 2 14-14 20-31 11-10-5-14-4-14 7 0 10 5 15 20 19 21 6 41 2 51-12 3-4 4-8 4-18 0-17-7-29-28-52l-16-17 24-1 24 0 0-19-39 0c-34-1-39 0-40 3z m100-2c-1 0-1 26-1 57 0 65-1 62 20 62 12 0 15 0 19-5 3-2 10-19 18-41l13-37 15 39c8 21 16 40 18 42 6 3 31 3 35-1 3-3 3-11 3-60l-1-57-12 0-12-1 0 49 0 49-14-40c-8-22-16-44-18-49l-3-9-24 0-13 41c-8 22-15 44-17 47-2 7-3 1-3-40l0-48-11 0c-6 0-11 1-12 2z m-160 258c-12 6-14 13-13 49l1 31 6 7c13 12 34 8 41-8 2-5 3-15 3-35 0-24-1-29-4-35-8-12-21-16-34-9z m238 1c-11 7-12 12-12 44 0 33 2 39 13 46 12 7 29 2 35-10 5-9 5-64 0-72-7-13-23-16-36-8z"/>
<glyph glyph-name="24h" unicode="&#108;" d="M213 28c-94 18-168 92-186 186-4 21-4 67 0 88 18 94 93 169 187 187 21 4 67 4 88 0 94-18 169-93 187-187 4-21 4-67 0-88-18-94-93-169-187-187-20-3-70-3-89 1z m84 40c16 4 46 15 61 24 15 9 40 32 53 49 16 21 25 40 32 64 4 17 5 23 5 51 0 38-4 59-18 85-29 58-78 94-144 106-36 6-83-2-119-20-23-12-56-42-70-64-11-17-25-54-29-73-13-76 20-151 87-196 11-8 38-19 57-24 28-7 54-8 85-2z m-53 13c-5 7-7 21-3 29 3 5 4 6 13 6 7 0 12-2 16-5 7-4 7-5 7-14-1-10-8-18-16-18-2 0-6 0-8-1-3-1-6 0-9 3z m83 24c-9 7-10 9-10 14 0 10 14 23 23 23 5 0 17-13 17-20 1-8-4-16-13-20-9-3-9-3-17 3z m-165 2c-9 8-10 9-8 16 1 9 13 19 22 19 7 0 9-1 12-8 2-4 5-7 6-7 3 3-1-13-5-17-10-10-17-11-27-3z m-58 55c-3 3-9 20-7 25 0 2 4 6 7 9 7 6 12 6 24-2 7-3 8-5 8-11 0-9-5-18-12-20-8-3-16-3-20-1z m278 6c-6 7-6 9-6 15 2 8 5 13 14 16 8 4 12 2 19-5 8-8 10-18 4-20-2-1-3-2-2-3 2-2-10-10-16-10-4 0-8 2-13 7z m-203 42c-1 1-2 5-2 11 0 8 1 10 16 26 24 25 29 39 19 48-6 4-14 4-22-2-9-5-11-3-11 7 1 9 1 10 8 13 19 10 45 6 53-7 5-8 5-24 0-35-2-5-11-16-20-25l-15-16 21-1 21 0 0-19-33 0c-18 0-33 0-35 0z m123 0c-1 1-1 6-1 12l0 10-22 0c-21 0-21 0-22 5-1 3-1 8 0 11 1 7 32 63 37 67 1 1 8 2 15 2l13-1 1-33 0-33 6 0c7 0 9-5 7-14-1-3-2-4-7-4-6 0-6-1-6-11l-1-11-9 0c-5-1-10 0-11 0z m-1 62l0 22-5-9c-3-4-8-14-12-21l-8-14 25 0z m-216-30c-5 3-10 14-10 21 0 6 8 15 16 16 5 1 8 1 12-2 4-3 7-5 9-5 7 0 2-27-6-29-9-3-18-3-21-1z m325-1c-10 2-13 27-5 35 5 5 19 4 27-2 6-4 7-5 6-14 0-9-1-11-5-14-6-4-17-6-23-5z m-306 84c0 1-3 5-5 9-3 4-6 9-6 12 0 7 13 18 21 18 6 0 19-10 21-15 1-5-5-18-10-22-3-3-21-4-21-2z m281 2c-3 2-5 4-4 5 1 0 0 2-2 3-3 3-4 9-1 11 0 1 1 2 1 3 0 4 11 11 17 12 6 1 8 1 13-4 3-3 5-7 5-8 0-1 1-2 3-2 5 0-4-18-11-22-6-3-14-2-21 2z m-222 57c-2 1-3 2-3 3 1 0-1 4-3 8-4 11-3 13 5 21 7 8 11 8 25 1 6-3 7-5 8-11 1-8-5-19-11-22-6-2-17-3-21 0z m166-1c-5 1-14 17-14 23 0 2 3 7 6 10 8 9 19 9 29 0 6-6 7-8 6-13-2-14-15-23-27-20z m-84 22c-4 5-7 14-7 20 0 9 7 16 16 17 6 1 9 0 16-6 8-6 9-7 7-14 0-5-2-9-3-9-1-1-2-2-2-4 0-5-23-9-27-4z"/>
<glyph glyph-name="48h" unicode="&#109;" d="M213 28c-94 18-168 92-186 186-4 21-4 67 0 88 18 94 93 169 187 187 21 4 67 4 88 0 94-18 169-93 187-187 4-21 4-67 0-88-18-94-93-169-187-187-20-3-70-3-89 1z m84 40c16 4 46 15 61 24 15 9 40 32 53 49 16 21 25 40 32 64 4 17 5 23 5 51 0 38-4 59-18 85-29 58-78 94-144 106-36 6-83-2-119-20-23-12-56-42-70-64-11-17-25-54-29-73-13-76 20-151 87-196 11-8 38-19 57-24 28-7 54-8 85-2z m-53 13c-5 7-7 21-3 29 3 5 4 6 13 6 7 0 12-2 16-5 7-4 7-5 7-14-1-10-8-18-16-18-2 0-6 0-8-1-3-1-6 0-9 3z m83 24c-9 7-10 9-10 14 0 10 14 23 23 23 5 0 17-13 17-20 1-8-4-16-13-20-9-3-9-3-17 3z m-165 2c-9 8-10 9-8 16 1 9 13 19 22 19 7 0 9-1 12-8 2-4 5-7 6-7 3 3-1-13-5-17-10-10-17-11-27-3z m-58 55c-3 3-9 20-7 25 0 2 4 6 7 9 7 6 12 6 24-2 7-3 8-5 8-11 0-9-5-18-12-20-8-3-16-3-20-1z m278 6c-6 7-6 9-6 15 2 8 5 13 14 16 8 4 12 2 19-5 8-8 10-18 4-20-2-1-3-2-2-3 2-2-10-10-16-10-4 0-8 2-13 7z m-102 42c-12 3-17 8-20 18-3 11 0 22 10 30l7 6-6 6c-8 7-10 13-8 25 2 19 25 29 50 22 21-6 25-33 7-47-3-3-3-3 5-12 9-7 9-8 9-19 0-12-4-20-14-26-9-5-28-6-40-3z m26 17c5 2 7 10 5 16-2 2-6 6-9 8-7 4-7 4-12 0-3-2-7-6-8-8-2-6 1-14 5-16 4-2 15-2 19 0z m0 55c3 4 4 13 0 16-4 4-17 3-20-1-3-7-2-12 5-17 7-6 9-5 15 2z m-87-71c-1 0-2 5-2 11l0 9-21 1-22 1-1 11c0 10 1 12 18 41l17 31 31 0 0-33 1-33 5-1c5 0 6-1 6-8 0-8-1-8-6-9-5-1-5-1-5-11 0-6-1-10-4-11-4-1-16-1-17 1z m-2 62l0 23-8-15c-4-8-10-18-13-23l-5-8 26 0z m-132-31c-5 3-10 14-10 21 0 6 8 15 16 16 5 1 8 1 12-2 4-3 7-5 9-5 7 0 2-27-6-29-9-3-18-3-21-1z m325-1c-10 2-13 27-5 35 5 5 19 4 27-2 6-4 7-5 6-14 0-9-1-11-5-14-6-4-17-6-23-5z m-306 84c0 1-3 5-5 9-3 4-6 9-6 12 0 7 13 18 21 18 6 0 19-10 21-15 1-5-5-18-10-22-3-3-21-4-21-2z m281 2c-3 2-5 4-4 5 1 0 0 2-2 3-3 3-4 9-1 11 0 1 1 2 1 3 0 4 11 11 17 12 6 1 8 1 13-4 3-3 5-7 5-8 0-1 1-2 3-2 5 0-4-18-11-22-6-3-14-2-21 2z m-222 57c-2 1-3 2-3 3 1 0-1 4-3 8-4 11-3 13 5 21 7 8 11 8 25 1 6-3 7-5 8-11 1-8-5-19-11-22-6-2-17-3-21 0z m166-1c-5 1-14 17-14 23 0 2 3 7 6 10 8 9 19 9 29 0 6-6 7-8 6-13-2-14-15-23-27-20z m-84 22c-4 5-7 14-7 20 0 9 7 16 16 17 6 1 9 0 16-6 8-6 9-7 7-14 0-5-2-9-3-9-1-1-2-2-2-4 0-5-23-9-27-4z"/>
<glyph glyph-name="acuritevn1black" unicode="&#110;" d="M33 52c-4 3-6 11-6 29 0 31-2 39-10 42-7 2-9 20-3 24 2 1 3 6 3 11 0 12 6 31 12 38 2 3 7 17 11 32 3 15 7 29 9 32 6 7 69 12 153 11 80-1 75-2 92 26 26 46 29 49 38 53 6 2 15 3 20 3 10 0 11 2 15 32 1 14 1 16-6 17-3 0-9 5-12 11-3 5-6 11-7 12 0 0-3-2-6-6-4-4-12-9-18-11-28-9-38-1-38 30 0 25 5 31 25 31 19 0 30-6 35-18 1-6 6-14 9-17 3-4 7-10 8-13 3-10 8-4 8 10 0 16 6 22 20 21 8-1 10 0 13 11 4 14 12 16 25 7 6-4 13-6 19-5 17 2 22-6 22-33 0-19-1-24-7-29-6-6-7-6-21-1-14 6-26 5-26-1 0-2-3-3-6-3-4 0-5-3-3-11 1-6 2-16 2-22 0-10 1-11 11-12 9-1 12-4 20-18 11-20 12-30 4-30-4 0-3-1 2-3 6-1 10-6 14-20 4-10 6-20 5-21-1-1 1-4 4-7 2-2 5-7 5-10 0-3 2-11 6-17 5-10 5-11-1-16-4-3-10-10-13-15-4-7-11-11-20-13-25-7-27-8-27-11 0-2 7-3 16-3 25 0 42-6 45-16 3-5 4-21 4-36l0-27-14 2c-9 2-24 3-35 3-25-1-37 9-45 32l-4 16-25 1c-33 0-34 0-34 6 0 6 5 7 32 10 29 3 37 6 34 9-2 2-20 0-44-5-69-15-64-13-73-35-9-24-22-41-34-46-28-10-104-27-125-27-7 0-16-2-21-5-14-7-50-7-57 1z"/>
<glyph glyph-name="addblock" unicode="&#111;" d="M330 16c-28 11-55 35-68 61-14 29-14 75 0 105 11 25 32 46 58 59 26 13 78 13 104 0 24-12 44-32 58-57 8-18 10-26 10-54 0-27-2-36-10-53-28-56-95-83-152-61z m92 25c24 15 41 37 48 61 15 50-11 104-60 124-21 9-60 8-81-3-38-19-65-67-59-104 6-39 25-65 60-82 27-13 68-11 92 4z m-66 41l0 22-44 0 0 36 44 0 0 44 32 0 0-44 44 0 0-36-44 0 0-44-32 0z m-236 122l0 36 104 0 0-72-104 0z m-120 88l0 36 104 0 0-72-104 0z m120 0l0 36 104 0 0-72-104 0z m120 50l0 82 108 0 0-164-108 0z m-240 46l0 36 104 0 0-72-104 0z m120 44l0 80 104 0 0-160-104 0z m-120 44l0 36 104 0-1-35-1-35-51-1-51-1z m244 0l0 36 104 0 0-72-104 0z"/>
<glyph glyph-name="allmonths" unicode="&#112;" d="M49 33c0 1-1 2-2 2-5 0-20 12-23 19-2 4-5 7-6 7-1 0-2 80-2 178l0 178 8 9c3 6 11 12 16 16 9 5 12 5 34 6l24 1 1-20c1-17 1-20 6-28 9-12 16-17 29-18 14-1 23 2 31 11 8 8 9 11 11 35l1 20 163 0 0-16c0-21 2-31 10-38 7-8 16-12 29-12 12 0 19 3 27 12 9 9 10 14 11 35l1 19 24-1c26-1 31-2 43-13 3-3 8-9 10-13 3-7 4-15 4-179 1-153 1-173-2-181-3-8-11-16-26-28-4-3-17-3-213-3-138 0-209 0-209 2z m411 54l5 5 0 227-414 0 0-112c0-76 1-114 2-117 2-2 5-5 7-6 2-1 92-2 200-2l195 0z m-188 78l0 66 20 0c22 0 18 4 30-34 18-57 20-63 21-60 0 2 8 24 16 48l15 45 20 1 20 1 0-26c0-13 0-41 0-60 0-19 0-37 0-41l0-7-27 0 0 11c0 6 0 28 0 49l0 38-16-49-16-48-28 0-3 10c-1 5-3 10-5 10-1 0-1 3-1 6 0 4-1 7-2 8-2 1-3 5-4 10-1 14-8 32-12 33-2 0-3 0-2-3 1-4 2-47 1-65l0-10-27 0z m30 16c0 2-1 5-1 6 0 1-1 1-2 1-2 0-3-6-1-8 3-3 6-2 4 1z m-172-22c1 2 3 3 5 3 2 0 3 2 2 16-1 9-2 18-3 20-1 3-1 3 1 1 2-3 2-2 2 5 0 6-1 10-5 14-2 3-4 5-4 6 1 0-7 16-16 34-10 18-18 33-18 34 0 0 7 1 16 0l16 0 13-26 13-25 13 26 13 26 33 0-4-7c-11-19-19-34-18-36 1-1 0-4-3-6-2-3-8-12-12-19l-8-15 0-50-15 0c-9 0-17-1-19-2-3-1-3 0-2 1z m-76 46c0 4 0 5 1 3 0-2 0-5 0-7-1-2-1 0-1 4z m71 198c-5 3-9 7-10 11-3 9-3 65 1 71 6 12 23 16 36 8 11-7 12-12 12-45 0-34-2-40-13-45-9-5-17-4-26 0z m239 1c-4 3-8 7-10 10-1 4-2 20-2 37l0 31 8 8c9 9 18 10 30 4 11-5 13-12 13-47 0-33-1-37-11-44-8-5-18-5-28 1z"/>
<glyph glyph-name="ambient1001black" unicode="&#113;" d="M208 67l0 31-13 13c-9 9-20 16-30 19-12 3-22 10-35 23-16 17-18 21-20 35-2 31 29 79 62 92 12 6 13 7 13 24 0 15-1 15-9 10-22-15-57 9-57 37 0 5 5 13 10 19 13 14 36 15 50 2l9-8 3 13c2 8 3 18 2 22-3 9-3 9-38 9-41 0-46 1-46 12 0 15 8 17 58 17 55 0 58 1 93 35l23 22 26-2c37-3 45-12 26-34-17-19-24-32-24-41 0-4-2-9-3-12-7-9-52-15-57-7-4 5-8-6-8-22l-1-9 13 7c10 6 16 7 23 5 9-2 20-11 23-19 1-2 6-2 21 0 34 7 78-4 98-23 6-7 16-15 21-19 21-13 7-51-32-86-10-9-24-20-32-24-7-5-23-15-35-23-20-14-21-14-23-34-3-25-11-33-30-33-10-1-17-3-24-8-9-8-10-10-12-41l-1-33-44 0z"/>
<glyph glyph-name="antipode" unicode="&#114;" d="M21 1c0 1 0 3 1 4 2 2 2 3 0 3-1 0-1 2-1 5 1 11 3 17 6 17 1 0 1 1 1 1-1 1 0 3 2 5 1 2 5 5 7 8 4 5 46 44 67 62 7 6 14 13 16 15 4 3 6 3 13-4 3-2 9-5 14-7 5-2 10-4 10-5 1-1-16-20-37-42-22-21-39-39-38-39 1 0-2-2-5-4-4-2-9-7-13-12l-6-8-18 0c-9 0-18 1-19 1z m192 83c-36 10-68 32-90 63-19 26-27 53-27 90 0 29 3 43 15 68 19 39 51 67 93 81 16 6 20 6 47 6 21 0 34-1 42-3 42-11 81-43 102-84 25-51 18-118-18-165-19-25-43-42-76-54-12-4-18-5-44-5-25-1-32 0-44 3z m61 12c28 5 54 17 74 36 10 9 11 10 10 16 0 4-2 9-3 11-2 2-3 7-3 10 0 4-1 7-2 7-3 0-3 7 0 13 2 3 2 6-2 13-2 4-4 10-4 14 0 8-9 11-25 8l-12-2-8 8c-6 8-7 10-7 17 1 5 0 9-1 10-3 3-1 6 7 11 5 3 8 6 8 9 0 3 2 6 6 8 3 1 4 3 2 3-3 0-6 9-5 13 1 2 4 3 10 3 5 0 7 1 5 2-1 1-2 3-1 5 0 2 0 3-2 3-2 0-2 1-2 3 1 3 1 4-1 2-4-4-8-3-8 1 0 3 2 5 4 5 2 1 4 3 4 4 0 2 0 3 1 3 0 0 2 1 4 1 2 1 3 0 3-2 0-5 8-13 9-10 1 2 4 3 8 3 4 0 5 1 2 1-3 1-11 8-11 10 0 1 3 3 6 5l6 4-9 7c-39 29-97 35-140 16-5-3-8-5-6-5 2 0 5-1 7-3 3-2 5-3 7-2 8 3 38 3 46 0 4-2 7-4 7-5 0 0 1-3 1-6 1-3 1-4-3-4-2 0-4-1-4-3-1-6 1-12 3-14 4-3 4-9 0-9-4 0-4 0 0-2 1-1 3-4 3-5 0-3-1-3-5-2-4 1-7 0-9-2-2-1-6-3-10-3-5-1-6-1-6 2 1 2 2 3 4 3 6 0 14 3 15 6 0 2-1 2-6-1-4-2-8-4-9-3-1 0-3-2-5-3-2-2-7-7-11-10-5-4-8-7-8-9 0-1-3-4-7-7-6-3-7-5-6-9 1-3 1-5-1-5-4 0-8 3-8 5 0 4-12 4-18 1-5-3-11-13-9-16 2-3 9-2 14 1 5 4 8 4 6-2-1-3 0-5 3-7 2-1 4-4 4-7 0-7 7-9 13-3 5 5 10 5 14 1 2-2 5-3 9-2 5 1 6 0 9-4 2-3 6-5 9-5 4-1 5-3 7-7 2-7 5-9 16-9 5 0 8-1 9-4 1-2 3-4 5-4 4 0 4-5-1-11-2-2-4-7-4-10 0-9-4-15-10-17-6-1-7-2-6-7 0-7-11-22-19-25-4-2-6-3-5-4 2-1 2-2 0-5-2-3-2-3 1-3 3 0 3-1 3-5-1-3 0-6 1-7 5-4 3-8-3-8-9 0-20 14-20 27 0 4-1 7-2 8-2 1-2 4-1 8 0 4 0 7-1 7-1 0-2 6-2 13 0 12 0 13-5 15-2 2-8 7-12 13-6 8-7 11-6 17 0 4 2 8 4 9 5 4 3 10-3 11-3 0-8 2-10 5-2 3-5 5-7 5-1 0-4 1-5 2-2 2-6 3-10 4-7 0-15 7-13 11 0 1 0 4-1 5-2 2-2 2-2-1 0-1-1-3-3-3-3 0-11 12-11 18 0 2-1 6-3 7-5 5-10-21-10-48 0-18 1-25 6-39 12-40 38-70 74-87 10-5 23-9 29-11 6-1 13-2 15-3 8-1 26-1 39 1z m94 186c3 0 6-1 7-2 1-2 13-3 13-1 0 4-3 7-7 7-2 1-5 3-6 6l-3 5-1-5c-1-2-2-4-3-4-2 0-6 5-6 8 0 4-7 11-9 9-1-1 0-3 3-5 5-4 5-11-1-12-5-1-9 4-5 6 2 1 1 2-2 4-7 4-13 3-17-3l-3-5 10 0c9 0 10-1 10-4 0-3 2-4 7-6 3-1 6-1 7 0 0 1 3 2 6 2z m-147 44c2 0 3 2 3 6 0 6 5 9 13 7 2 0 3 0 2 0-4 2-4 5 1 6 2 1 4 2 3 3-2 3-9 0-15-5-4-5-10-7-10-3 0 1-4 0-8-2-10-5-10-10-2-11 5-1 6-2 5-6-1-4-1-4 2 0 2 3 5 5 6 5z m141 0c0 3-3 4-6 1-2-3-1-3 2-3 2 0 4 1 4 2z m-115 7c3 2 2 5-2 5-2 0-3-1-3-3 0-3 0-4 5-2z m-37 18c3 3 3 3-2 1-7-3-7-4-4-4 2 0 5 1 6 3z m220-5c-1 2-1 11 0 27 3 31 2 33 0 33-2 0-12-11-24-25l-21-25-12 12-13 11 24 23c13 13 24 24 23 24 0 1-13-1-27-3-32-6-35-6-37-2-1 4 8 24 13 27 5 3 94 9 98 8 3-2 4-9 5-48 1-32 1-47-1-50-1-2-7-6-14-10-11-6-12-6-14-2z"/>
<glyph glyph-name="apparent" unicode="&#115;" d="M259 23c-2 1-3 3-2 5 1 2 0 6-2 8-2 3-3 15-3 67l0 63-9 0c-5 0-10 1-11 2-2 2-5 3-7 3-3 0-5 2-6 7-1 3-2 44-2 89l1 83 5 5c3 3 6 5 8 5 1-1 3 0 3 1 1 3 15 3 82 4 89 0 88 0 99-14l5-6 0-81c0-99 0-97-24-98-6 0-12-1-12-1-1 0-1-31-1-68l0-68-6-4c-4-4-8-5-59-5-34 0-56 2-59 3z m-165 216c-17 6-36 25-42 42-7 20 0 47 15 62l7 6 0 43c0 26 1 46 2 50 2 7 13 18 21 22 8 5 23 4 33-2 11-7 20-20 20-30l0-8 9 0c11 0 17-4 17-12 0-6-6-11-17-11-9 0-9 0-9-5 0-4 1-4 9-5 23-3 23-24 0-24l-9 0 0-9c0-7 1-10 9-18 22-25 20-61-4-84-13-13-22-17-40-18-9 0-18 0-21 1z m-10 79c4 4 11 10 16 13l9 5 0 43c0 33 0 43 2 44 1 0 5 1 8 2 5 1 6 2 6 7 0 11-15 16-23 8-3-4-4-6-4-51l0-47-11-11c-7-7-11-13-13-19-3-11-3-15 1-8 1 4 5 10 9 14z m216 57c-4 1-8 3-8 4-1 2-2 2-4 0-2-2-4-1-5 1-2 2-2 3-2 3 1 0-2 4-7 8-5 4-11 13-14 18-2 5-5 11-6 13-3 5-3 26 0 28 2 1 1 2 0 4-3 3-2 4 2 7 2 2 5 6 5 8 1 7 19 25 26 26 2 0 5 2 6 4 3 4 45 4 49 0 1-2 4-3 6-3 2 0 7-4 11-8 3-4 10-9 13-11 4-2 7-6 7-8-1-2 0-7 2-11 5-18 1-48-9-58-2-2-3-5-2-5 2-3-6-10-10-9-2 1-4 0-5-2-5-8-39-14-55-9z"/>
<glyph glyph-name="applogo" unicode="&#116;" d="M218 5c-5 5-6 8-6 27 0 22 0 22-6 22-7 0-17 4-20 8-1 2-2 31-2 64l0 61 146 0 0-123-6-5c-4-3-11-5-14-5l-8 0 0-21c0-19-1-23-6-27-7-8-13-8-21 0-5 6-6 9-6 27l0 21-26 0 0-22c0-18-1-23-5-27-7-7-13-6-20 0z m134 193c-5 5-7 12-16 58-9 44-10 53-8 59 5 9 16 10 24 1 5-5 7-15 15-55 11-53 11-63 0-67-8-3-7-3-15 4z m-207 1c-8 7-7 12 13 80 11 35 16 44 27 44 5 0 12-10 12-17 0-10-28-101-32-106-6-6-15-7-20-1z m39 5c0 13 16 35 33 44 4 2 4 3-1 10-8 11-9 13-6 13 1 0 6-4 9-10 4-6 8-9 9-9 6 4 29 6 44 4 17-3 19-2 28 13 1 2 3 3 3 2 1-1 0-6-3-11-3-5-6-9-6-10 0 0 5-4 11-8 12-8 22-22 24-35l2-10-147 0z m46 17c5 6 2 12-5 12-3 0-6-2-6-4-2-4 2-11 6-11 1 0 4 1 5 3z m64 0c4 5 1 12-6 12-5 0-6-1-6-6 0-10 6-13 12-6z m-53 77c-22 6-43 23-53 42-7 14-10 35-6 51 2 8 4 13 4 12 1-1 2-12 2-25 0-19 1-25 6-34 13-24 35-39 61-41 19-2 33 2 49 13 10 7 12 9 12 16-2 16-3 25-6 33-3 6-4 7-12 6-7-1-10 0-13 4-4 6-3 11 3 20 3 4 5 10 5 12 0 2 2 4 3 3 5-1 4 7-1 9-3 2-3 3-1 5 2 1 5 0 7-3 4-5 7-1 5 5-1 2-1 4 1 4 6 0 2 5-10 12-9 4-19 7-30 8-10 1-16 2-15 4 1 4 26 3 39-2 16-7 37-27 45-43 8-18 8-47 0-65-7-16-26-35-42-42-15-7-39-8-53-4z m86 105c-2 2-5 3-9 1-7-2-7-6-1-4 3 1 7 0 8-1 5-3 7 0 2 4z m-17 5c-2 2-4 2-6 0-2-3-2-4 3-4 5 0 6 1 3 4z m-64-98c-1 2-4 11-6 20-2 10-6 19-9 23-5 5-5 7-3 13 6 13 9 14 19 9 5-3 10-6 11-8 1-2 3-3 6-3 2 0 5-2 7-4 4-4 0-17-5-19-3-1-5-3-5-6 0-2-2-6-5-9-4-3-5-7-5-12 2-7 0-9-5-4z m-30 69c-5 2-9 5-9 6 0 1 5 10 11 21 11 18 17 23 21 16 2-3 7 0 7 4 0 3-2 4-6 3l-6-2 5 5c7 7 17 9 22 6 3-3 3-3-1-6-3-3-3-4-2-6 5-2 4-12-1-10-2 1-3 0-2-1 0-2-1-3-3-3-3 0-9-4-14-9-5-5-10-8-13-7-6 2-13-3-13-9 0-2 2-3 5-2 3 1 6 0 8-5 3-7 2-7-9-1z m-25 32c-5 7-15 18-21 23-25 20-26 50-3 70 9 7 11 8 31 8l20 0 11-11c9-9 12-15 13-23 2-17-1-27-14-42-7-7-15-18-18-23-9-17-9-17-19-2z m1 57c1 3 3 6 4 6 1 0 3 2 3 6 1 5 0 6-3 5-2-1-4 0-5 6 0 5-2 7-7 8-7 0-7 1-11-20-1-3-1-8 0-12 1-5 3-6 10-6 5 1 8 3 9 7z m15 38c-4 4-8 4-6 0 1-2 4-4 6-4 3 0 3 1 0 4z"/>
<glyph glyph-name="areachart" unicode="&#117;" d="M34 29c-1 2-1 101-1 222l1 219 31 0 0-144 1-143 12-5c22-7 91-27 109-32 4-1 8-3 10-3 2-2 8 7 28 41 55 92 64 108 67 111 2 2 12-3 116-57 7-4 13-7 14-7 1 0 12 13 25 28 16 21 24 29 27 29l4 0 0-260-222-1c-176 0-222 0-222 2z"/>
<glyph glyph-name="areaspline" unicode="&#118;" d="M26 18c-2 0-4 4-4 7-2 11-1 445 1 447 2 3 31 3 34 0 1-1 2-72 2-158 0-138 1-157 3-154 2 1 4 3 4 5 0 1 3 4 7 7 4 3 7 7 8 8 1 2 5 8 9 13 5 5 11 12 14 17 3 4 7 9 9 11 1 1 9 9 16 19 7 9 17 20 21 24 4 5 8 9 8 10 0 4 13 15 23 20 19 9 50 6 64-6 4-4 11-8 15-9 4-1 8-4 9-6 1-4 21-19 26-19 1 0 3-2 4-4 1-3 3-4 4-4 3 1 25 28 48 56 28 35 37 43 50 47 26 8 44 2 68-19l9-9 0-150c0-83-1-151-1-152-2-2-444-3-451-1z"/>
<glyph glyph-name="asteroids" unicode="&#119;" d="M131 45c-10 4-18 6-20 7-1 0-3 1-3 3-1 1-3 2-5 2-2 0-5 2-6 3 0 2-2 3-3 4-5 0-26 26-34 41-7 13-15 40-15 50 0 4 1 5 7 5 3 0 8-1 10 0 4 0 16 10 15 12-1 0 0 2 1 3 2 2 1 5 0 10-3 8-12 14-22 14-7 0-6 7 4 26 21 43 63 68 113 68 23 0 37-3 54-11 7-3 13-6 13-5 1 0 3-1 5-4 1-2 3-3 3-2 0 1 1 0 3-2 2-3 4-5 6-5 3 0 15-13 15-16 0-1 2-2 3-3 2-1 4-3 4-4 0-2 1-3 2-3 1 0 2-2 2-4 0-1 0-3 1-3 3 0 11-18 11-24 0-2 1-4 1-5 5-5 5-67 0-72 0-1-1-3-1-5 0-6-8-25-11-25-1 0-1-1-1-3 0-1-1-3-2-3-1 0-2-1-2-3 0-4-21-25-24-25-1 0-3-2-4-4-1-1-2-3-4-3-2 0-3-1-3-2 0-1-1-2-2-2-2 0-5-1-8-3-3-2-6-4-7-4-2-1-9-3-17-5-11-3-21-4-38-4-21 0-26 1-41 6z m-4 74c3 3 6 7 6 9 0 5-11 15-17 15-6 0-16-9-16-15 0-7 10-15 16-15 3 0 8 2 11 6z m91 2c6 5 7 8 7 14 0 4-1 9-3 11-1 2-3 4-3 5 0 3-9 7-16 7-8 0-21-12-21-19 0-21 21-31 36-18z m-53 103c9 9 9 16 1 24-8 8-16 8-23 0-3-3-6-7-6-9-3-8 8-22 17-22 2 0 7 3 11 7z m166-41c0 9-4 24-8 37-8 23-8 28-2 28 1 0 3 1 3 2 0 1 11 12 26 24 14 12 47 40 73 62 25 23 48 41 50 41 3 0 4-2 4-4 0-5-18-33-20-33-2 0-2-1-2-3 0-2-1-3-2-3-1 0-2-2-2-3 0-2-1-3-2-3-2 0-3-2-3-3 0-2 0-3-1-4-3-1-13-16-11-16 0 0 0-1-2-2-2-1-4-3-3-4 1-1 0-2-1-2-1 0-2-1-2-3 0-2-1-3-2-3-1 0-2-2-2-3 0-2-1-3-2-3-1 0-2-2-2-3 0-2-2-3-3-4-2-1-3-3-3-5 0-1-1-3-2-3-1 0-2-1-2-3 0-1-1-3-2-3-1-1-16-22-34-49-21-31-34-47-36-47-3 0-4 3-5 15z m-99 131c-5 2-12 4-14 4-2 0-5 1-7 2-1 1-9 2-18 3-9 1-16 1-17 2-1 1 2 11 4 10 1-1 3 0 4 2 1 2 2 3 2 2 0-1 28 17 29 20 0 1 2 1 3 1 2 0 3 1 3 2 0 2 1 3 2 3 1 0 5 2 8 5 2 2 8 6 11 7 3 2 6 4 6 4 0 1 1 2 3 2 2 0 3 1 3 2 0 1 1 2 3 2 2 0 3 1 3 2 0 1 6 6 14 11 29 19 81 55 82 57 0 1 2 2 4 2 1 0 2 1 2 2 0 1 2 2 3 2 2 0 4 1 4 2 0 1 4 3 8 3 7 1 8 1 8-3 0-2-1-4-3-5-2-1-3-2-3-3 0-2-3-5-6-8-4-3-6-6-5-6 0-1-2-4-6-7-3-2-6-5-6-7 0-2-3-5-7-8-4-3-7-7-7-9 0-1-3-4-6-6-3-3-6-6-6-6 0-1-6-8-13-16-8-8-13-15-13-15 1-1-2-3-5-6-3-3-6-6-6-7 0-1-3-4-6-7-4-3-6-6-6-7 0 0-6-8-14-15-7-8-13-15-13-16 0-3-11-1-22 3z"/>
<glyph glyph-name="autumn" unicode="&#120;" d="M209 34c-6 3-2 10 5 10 2 0 4 2 3 4-3 4-35 4-38-1-1-2-4-2-7-1-2 0-6-1-8-3-4-4-14-5-31-5-9 0-18 6-11 9 2 1 3 3 2 5-1 2 0 3 3 2 7-3 29 20 33 35 5 14-1 20-18 20-25 0-35 10-16 18 5 2 7 4 4 5-2 1-3 3-2 5 3 5-56 59-82 75-14 8-26 17-26 19 0 5 2 5 31 1 15-2 23-2 26 0 3 2 8 3 11 2 6-2 79 7 82 10 4 4-4 26-14 39-6 8-13 18-16 21-2 4-3 9-2 12 2 5 3 5 10 0 10-6 12-4 12 14 0 7 2 21 4 30 2 9 5 38 5 63 1 26 3 48 3 50 3 9 8 5 13-8 6-19 49-86 55-86 2 0 2 1 1 3-1 2 1 4 5 6 6 1 10 0 14-6 4-4 6-9 6-12 0-2 6-8 12-12 6-4 13-12 14-16 3-11 6-9 16 11 5 9 18 27 28 39 10 12 22 28 25 34 9 18 25 42 28 42 5 0 8-12 4-13-2-1-4-4-4-6 0-4 2-5 4-4 2 1 3 1 3-1 0-2-2-4-4-4-3 0-3-1 1-3 3-3 4-5 1-6-7-2-6-19 0-34 3-7 5-15 4-18-3-10 5-38 11-38 2 0 9 3 15 6 12 7 15 5 10-10-12-36-13-43-11-45 3-2 42 8 46 11 4 5 23 0 23-4 0-3-6-8-12-12-12-7-44-51-41-56 1-2 8-2 15-1 10 1 14 0 14-3 0-6-13-18-22-21-4-1-14-5-23-9-14-7-15-7-7-10 16-8 5-11-47-14-57-3-59-4-42-22 10-12 65-42 81-45 13-3 16-13 4-16-10-2-70 31-90 51-13 13-15 13-15 6 0-14-17-66-30-90-11-20-15-25-23-26-8-1-9 0-7 5 2 5 2 5-6 0-9-6-25-7-32-2z"/>
<glyph glyph-name="ban" unicode="&#121;" d="M107 9c-33 15-61 36-79 64-22 33-29 59-27 105 1 33 3 40 16 67 18 36 44 61 82 79 25 12 27 13 74 11 45-1 51-2 73-13 58-30 94-88 94-152 0-67-38-127-100-157-19-9-28-11-66-12-39-1-46 0-67 8z m96 49c61 18 96 87 75 150-4 11-8 20-9 20-2 0-39-36-83-80l-80-80 12-4c34-14 54-15 85-6z m25 210c0 7-34 16-60 16-48 0-86-24-105-68-11-24-12-68-1-91l8-17 79 79c43 43 79 80 79 81z m68 132l0 88 40 0 0-176-40 0z m80 0l0 89 41-2c28-1 45-4 54-9 33-16 33-74 0-94-7-4-23-9-36-10l-23-3 0-59-36 0z m73 15c17 15 4 37-21 37l-16 0 0-44 15 0c8 0 18 3 22 7z"/>
<glyph glyph-name="barchart" unicode="&#122;" d="M41 20l0 21-41 0 0 25 41 0 0 446 24 0 0-54 198 0 199-1 0-31c0-29 0-32-2-33-1-1-42-1-198-1l-197 0 0-12 122 0 123-1 0-30c0-28 0-31-2-32-1-1-27-1-122-1l-121 0 0-13 161 0c144 0 161 0 163-2 2-1 2-1 2-31 0-29 0-31-2-32-1-2-14-2-163-2l-161 0 0-13 203 0 203-1 0-31c0-29 0-32-2-33-1-1-43-1-203-1l-201 0 0-13 181 0c151 0 182 0 184-1 1-2 1-3 1-32-1-16-1-30-1-31-1-1-56-1-183-1l-182 0 0-13 447 0 0-25-447 0 0-41-24 0z"/>
<glyph glyph-name="barchart-1" unicode="&#65;" d="M38 25c-1 1-1 102-1 224l1 221 31 0 0-207 1-208 208 0 208-1 0-30-223-1c-178 0-224 0-225 2z m60 59c-3 6-3 168 1 172 1 1 13 2 39 2 34 0 38 0 41-4 3-3 3-12 3-85 0-77 0-83-3-86-4-3-10-3-41-3-35 0-38 0-40 4z m92 0c-3 3-4 15-4 124 0 115 1 121 4 124 3 3 9 4 41 4 33 0 37-1 40-4 3-3 3-15 3-125 0-114 0-121-3-124-4-3-9-3-41-3-33 0-37 0-40 4z m93-2c-3 4-3 340 0 344 3 3 72 3 78 0 4-2 4-6 4-171 0-161-1-169-4-172-3-3-9-3-40-3-25 0-36 1-38 2z m91 2c-3 3-3 16-3 148 0 132 0 145 3 147 5 4 74 4 79 0 4-3 4-12 4-148 0-137 0-145-4-148-3-3-9-3-40-3-32 0-36 0-39 4z"/>
<glyph glyph-name="barotrend" unicode="&#66;" d="M227 12c-4 5-8 10-8 12 0 3 96 99 99 99 1 0 13-12 27-26l25-25 60 60-14 14c-8 8-15 15-15 16 0 1 18 2 41 2l41 0 0-41c0-23 0-41-1-41-1 0-8 6-15 13-7 8-14 14-14 14-1 0-20-18-42-40-21-22-40-40-41-40-1 0-12 11-26 24-13 14-25 25-26 25-1 0-19-17-39-37-22-22-38-37-41-37-2 0-7 4-11 8z m-224 123c-5 5-4 17 2 22l4 5 182 0c174 0 181 0 185-4 4-3 5-6 5-12 0-16 15-15-191-15-175 0-183 0-187 4z m1 58c-6 5-5 18 0 23 4 4 9 4 73 5l68 0 0 34-11 5c-15 7-36 23-47 37-58 72-27 179 61 209 15 5 20 6 42 6 23 0 28-1 43-6 88-30 119-137 61-209-11-14-32-30-47-37l-11-5 0-34 67 0c65 0 67 0 73-4 6-5 7-18 1-24-4-5-7-5-187-5-179 0-182 0-186 5z m203 103c59 12 88 78 57 129-7 11-7 11-9 6-2-3-10-14-18-24-14-17-16-21-16-27 0-30-41-41-57-15-12 19 3 45 25 46 9 0 12 2 31 17 11 9 22 16 25 16 3 0 2 1-4 6-32 24-80 21-110-7-50-48-26-132 42-147 16-4 18-4 34 0z"/>
<glyph glyph-name="bearing" unicode="&#67;" d="M185 6c-83 18-161 98-179 182-8 36-8 100 0 136 18 86 96 164 182 182 36 8 100 8 136 0 86-18 164-96 182-182 8-36 8-100 0-136-18-86-96-164-182-182-35-7-105-7-139 0z m129 28c100 26 170 117 170 222 0 128-100 228-228 228-128 0-228-100-228-228 0-104 66-192 166-220 31-10 87-10 120-2z m-67 2c-6 4-7 10-7 42 0 32 1 38 8 44 8 7 8 7 16 0 7-6 8-12 8-44 0-33-1-38-8-42-9-5-8-5-17 0z m-133 80c-4 6 56 121 85 161 18 25 49 47 128 89 46 25 67 34 70 31 3-3-5-22-27-64-43-83-62-111-92-132-22-16-152-89-159-89-1 0-3 2-5 4z m160 122c14 14 2 42-18 42-8 0-24-16-24-24 0-20 28-32 42-18z m-233 7c-3 2-5 8-5 11 0 13 10 16 48 15 30-1 38-2 42-8 3-5 3-9 0-14-4-6-12-7-42-8-26-1-40 0-43 4z m347 3c-3 6-3 10 0 16 4 7 8 8 42 8 31 0 38-1 44-8 5-6 6-9 2-16-4-7-8-8-44-8-36 0-40 1-44 8z m-144 142c-3 3-4 18-3 42 1 30 2 38 8 42 5 3 9 3 14 0 6-4 7-12 8-42 1-38-2-48-15-48-4 0-9 2-12 6z"/>
<glyph glyph-name="bioindexes" unicode="&#68;" d="M214 22c-4 4-4 6-3 53 1 26 2 64 3 84 1 20 2 41 2 47 0 10-1 9-4-10-2-12-4-23-6-25-4-4-13-4-18 1-4 5-4 6-2 26 1 12 3 31 5 43 2 12 3 25 3 28 0 8 4 18 10 25 16 21 74 21 90 0 6-7 10-17 10-25 0-3 1-15 3-27 1-12 4-31 5-43 2-21 2-22-2-26-6-6-14-6-18-2-2 3-4 12-6 25-1 11-3 20-4 19 0 0 0-24 2-52 1-29 2-71 3-94 1-41 1-43-3-47-5-5-15-5-20 0-3 3-4 9-6 26-1 13-3 31-4 41-1 10-3 25-3 34l-2 16-1-13c-1-7-3-23-4-35-5-57-7-66-10-69-5-5-15-5-20 0z m193-3c0 1-1 6-1 11 0 6 0 10-1 10-1 0-3-1-6-3-6-4-13-3-16 1-3 6 0 10 13 17l10 6 0 14c0 8-1 15-1 15-1 0-7-3-13-7l-11-6-1-13c-1-15-3-18-9-18-6 0-9 4-9 11 0 8-3 9-10 4-2-2-7-3-10-3-4 1-5 2-6 7 0 6 1 7 8 11l9 5-8 5c-3 2-7 5-8 7-2 5 3 11 8 11 5 0 17-6 23-10 1-2 5-1 12 4 6 3 11 6 12 6 6 0 2 5-9 11l-13 7-10-6c-12-7-16-7-21-2-5 5-4 7 5 13l8 6-8 5c-7 4-8 5-8 11 1 5 2 6 7 7 3 0 8-2 12-4l7-4 0 7c0 9 3 13 9 13 7 0 9-4 9-18l0-13 12-6c6-3 12-6 13-7 0 0 1 6 1 14l0 15-11 6c-12 7-16 12-11 18 3 4 9 4 16 0l6-3 0 11 1 10 16 0 1-10 0-11 6 3c7 4 14 3 17-2 3-4 0-9-13-16l-10-6 0-31 13 8 12 7 1 14c0 13 3 19 8 19 4 0 10-8 10-14 0-7 2-7 9-3 8 5 14 3 15-4 0-6-1-7-7-12l-7-4 7-6c7-5 9-10 5-15-4-3-9-2-20 4l-11 6-13-7c-7-4-13-8-13-8-1 0 5-3 13-7l13-8 11 6c11 6 16 7 20 4 4-5 2-11-5-16l-7-4 6-5c6-3 7-5 7-11 0-6-1-7-5-8-2 0-7 2-11 4l-7 4 0-6c0-9-3-14-9-14-7 0-9 4-9 18l-1 13-12 7-13 8 0-31 10-6c13-7 16-11 13-17-3-4-10-5-17-1l-6 3 0-11c-1-10-1-10-8-11-4 0-8 0-9 1z m-310 284c0 1-1 9-1 17 0 14 0 16 4 18 3 2 5 2 9-1 4-3 5-4 5-17 0-8-1-14-2-16-3-2-12-3-15-1z m138 12c-11 6-19 18-19 30 0 9 10 24 19 28 16 7 32 2 41-13 11-17 5-35-13-46-6-3-23-2-28 1z m-79 24c-5 6-10 12-10 13 0 3 7 8 11 8 5 0 23-18 23-22 0-4-6-10-10-10-2 0-8 5-14 11z m-119-3c-5 5-3 12 7 21 6 5 10 7 13 6l5 0-5 6c-7 10-11 22-11 36 0 15 5 27 17 39 12 12 21 16 39 18 13 0 15 0 27-6 16-7 25-18 31-33 10-28-3-58-32-73-14-8-34-7-50 1-10 6-12 6-12 3 0-4-18-22-23-22-1 0-4 2-6 4z m80 30c5 2 11 6 15 10 19 19 14 51-10 63-10 5-31 4-41-4-20-15-20-48-1-63 10-8 23-10 37-6z m-111 31c-1 1-2 5-2 8 1 6 1 6 16 7 9 0 15-1 17-2 4-4 4-12-1-14-6-3-27-3-30 1z m165 1c-2 2-3 5-3 6 0 6 5 8 21 8 16-1 16-1 17-7 1-9-3-11-18-11-10 0-14 1-17 4z m-132 58c-9 9-11 15-7 20 5 4 11 2 21-8 10-10 11-14 5-19-5-5-8-4-19 7z m114-4c-5 5-4 9 4 18 11 11 14 13 20 9 8-5 6-11-5-22-11-10-14-11-19-5z m-55 19c-1 2-2 8-2 17 1 15 1 15 7 16 9 1 11-3 11-18 0-8-1-14-2-16-4-3-11-3-14 1z"/>
<glyph glyph-name="blocks" unicode="&#69;" d="M177 53l1 53 156 0 1-53 1-53-160 0z m180 0l1 53 77 1 77 1 0-108-156 0z m-357 131l0 56 77-1 77-1 0-108-77-1-77-1z m178-51c-1 3-2 28-1 55l1 50 156 0 0-108-77-1c-61-1-78 0-79 4z m180 8c-1 3-2 58-1 123l1 118 77 1 77 1 0-248-76 0c-58 0-77 1-78 5z m-358 185l0 58 77-1 77-1 0-112-77-1-77-1z m179-52c-2 2-3 56-3 121l0 117 160 0-1-119-1-119-76-1c-42-1-78 0-79 1z m-179 184l0 54 156 0-1-53-1-53-77-1-77-1z m363-51c-2 1-3 25-3 54l0 51 152 0 0-108-73 0c-41 0-75 1-76 3z"/>
<glyph glyph-name="buoy" unicode="&#70;" d="M0 54c0 3 6 7 15 8 22 4 37 13 41 24 5 14 5 13-4 15-13 4-5 14 13 17 21 3 34 11 39 24 5 13 13 12 19-2 2-6 8-13 13-16 8-4 8-4 4 4-7 12-10 72-5 85 3 6 9 11 16 13 11 2 12 5 36 89 13 48 26 95 27 104 2 13 7 21 16 31 13 12 16 14 36 14 18 0 23-2 34-12 6-7 13-18 14-23 3-13 48-168 54-188 3-8 8-14 16-17l12-4 0-41c0-29-2-45-6-53-8-14-8-14 6-14 19 0 40 12 45 25 4 11 15 15 15 5 0-12 18-26 36-29 12-2 18-5 19-10 2-11-21-9-45 3l-19 9-14-8c-9-5-16-9-17-9 0-1 1-7 4-14 5-11 14-17 40-23 19-5 14-11-9-11-12 0-23 3-29 8l-11 8-18-9c-27-13-66-13-87 1-13 9-16 10-22 5-19-17-73-19-94-5l-11 8-18-9c-25-13-63-13-81 0l-14 9-18-9c-20-11-48-12-48-3z m138 10c18 6 29 14 34 27 4 11 13 10 16-1 4-23 33-34 66-24 19 6 24 8 28 20 7 17 13 18 18 2 8-22 38-32 68-24 16 4 36 19 36 27 0 2-10 5-23 6-30 3-48 12-54 28l-5 13-6-13c-7-17-32-27-62-24-24 2-40 13-43 29-1 7-2 7-7-4-12-25-48-32-79-14-12 7-13 7-27 0-9-4-20-8-26-8-6 0-8-2-6-3 2-2 7-9 10-16 3-7 5-13 6-13 0 0 7-3 16-6 20-7 20-7 40-2z m210 175c-2 6-10 37-20 69-9 32-17 61-18 65-2 6-3 6-15-1-17-10-47-11-59 0l-10 7-21-72c-11-40-21-74-21-76 0-1 38-3 84-3l84 0z"/>
<glyph glyph-name="calendar-day" unicode="&#71;" d="M46 35c-11 6-19 13-24 24l-6 9 0 343 6 10c5 12 15 21 27 25 4 1 17 2 28 3l21 0 0-17c1-32 15-49 41-49 12 0 19 3 27 12 8 8 10 15 10 35l0 19 162 0 0-11c0-21 3-35 11-42 8-9 17-13 30-13 12 0 19 3 27 12 9 9 10 14 11 34l1 20 20 0c25 0 33-3 45-14 18-16 17-7 17-196 0-121-1-168-3-174-3-11-16-25-27-30-9-4-9-4-212-4-202 0-204 0-212 4z m416 51c2 5 3 19 3 119l0 114-413 0-2-7c-2-14-1-220 1-220 1 0 2-1 2-3 0-7 0-7 205-7l201 0z m-248 60c-1 1-1 28-1 60l1 57 27 0c33 0 43-2 56-15 12-12 15-24 15-46 0-27-11-45-30-54-11-5-66-7-68-2z m54 22c11 5 17 18 17 36 0 26-13 40-39 40l-8 0 0-80 11 0c8 0 15 1 19 4z m-142 235c-12 6-14 13-13 49l1 31 6 7c13 12 34 8 41-8 2-5 3-15 3-35 0-24-1-29-4-35-8-12-21-16-34-9z m238 1c-11 7-12 12-12 44 0 33 2 39 13 46 12 7 29 2 35-10 5-9 5-64 0-72-7-13-23-16-36-8z"/>
<glyph glyph-name="calendar-month" unicode="&#72;" d="M46 35c-11 6-19 13-24 24l-6 9 0 343 6 10c5 12 15 21 27 25 4 1 17 2 28 3l21 0 0-17c1-32 15-49 41-49 12 0 19 3 27 12 8 8 10 15 10 35l0 19 162 0 0-11c0-21 3-35 11-42 8-9 17-13 30-13 12 0 19 3 27 12 9 9 10 14 11 34l1 20 20 0c25 0 33-3 45-14 18-16 17-7 17-196 0-121-1-168-3-174-3-11-16-25-27-30-9-4-9-4-212-4-202 0-204 0-212 4z m416 51c2 5 3 19 3 119l0 114-413 0-2-7c-2-14-1-220 1-220 1 0 2-1 2-3 0-7 0-7 205-7l201 0z m-272 59c-1 0-2 26-2 57 0 65-1 62 21 62 20 0 21-1 37-45 7-20 13-36 14-35 1 1 7 17 15 37 7 19 14 37 16 39 3 3 7 4 18 4 22 0 21 4 20-63l0-57-12 0-12-1 0 47-1 48-16-47-17-47-11 0c-6-1-12 0-13 1-1 1-9 23-18 49l-16 47 0-49 0-49-11 0c-6 0-12 1-12 2z m-64 258c-12 6-14 13-13 49l1 31 6 7c13 12 34 8 41-8 2-5 3-15 3-35 0-24-1-29-4-35-8-12-21-16-34-9z m238 1c-11 7-12 12-12 44 0 33 2 39 13 46 12 7 29 2 35-10 5-9 5-64 0-72-7-13-23-16-36-8z"/>
<glyph glyph-name="calendar-year" unicode="&#73;" d="M46 35c-11 6-19 13-24 24l-6 9 0 343 6 10c5 12 15 21 27 25 4 1 17 2 28 3l21 0 0-17c1-32 15-49 41-49 12 0 19 3 27 12 8 8 10 15 10 35l0 19 162 0 0-11c0-21 3-35 11-42 8-9 17-13 30-13 12 0 19 3 27 12 9 9 10 14 11 34l1 20 20 0c25 0 33-3 45-14 18-16 17-7 17-196 0-121-1-168-3-174-3-11-16-25-27-30-9-4-9-4-212-4-202 0-204 0-212 4z m416 51c2 5 3 19 3 119l0 114-413 0-2-7c-2-14-1-220 1-220 1 0 2-1 2-3 0-7 0-7 205-7l201 0z m-214 79l0 21-19 37c-10 21-18 38-17 39 2 3 25 3 27 0 2-3 15-31 19-43 2-4 3-3 11 16 14 31 12 29 26 29 11 0 12 0 12-4 0-2-8-19-17-37l-18-34 0-46-24 0z m-122 238c-12 6-14 13-13 49l1 31 6 7c13 12 34 8 41-8 2-5 3-15 3-35 0-24-1-29-4-35-8-12-21-16-34-9z m238 1c-11 7-12 12-12 44 0 33 2 39 13 46 12 7 29 2 35-10 5-9 5-64 0-72-7-13-23-16-36-8z"/>
<glyph glyph-name="camera" unicode="&#74;" d="M238 1c-1 1-1 21-1 45 0 87-6 172-14 199-4 14-11 26-19 32-14 10-34 34-39 48-7 17-13 55-9 63 0 2 3 8 5 13 9 26 41 55 71 63 14 4 39 4 51 1 38-12 67-43 76-81 5-22 4-30-6-46-2-4-4-9-3-11 0-2-1-4-3-6-3-2-4-6-4-8 0-2-2-5-5-8-3-3-5-6-5-6 0-2-21-22-24-22-1 0-4-3-7-8-2-4-5-8-7-9-10-5-17-81-21-211l-1-49-17 0c-9 0-17 1-18 1z m3 435c0 2 2 3 5 3 3 0 4-1 3-3-1-3 1-4 8-1 4 1 6 3 6 5 0 3 1 4 4 4 6 0 6 3-1 5-7 1-35 2-40 0-7-1-6-10 1-13 7-4 14-3 14 0z"/>
<glyph glyph-name="cdd" unicode="&#75;" d="M87 59c-4 6-4 11-4 94l0 87 5 4c6 5 19 5 25 1 9-7 9-10 9-82l0-68 138-1 138 0 0 72 0 73 5 4c6 6 18 6 24 2 9-7 9-9 9-94l0-80-5-8-5-9-336 0z m105 68c-1 0-4 1-8 2-23 2-40 23-40 49 0 9 11 28 20 33 13 8 18 10 24 11 21 5 27 6 36 6 9 1 12 2 8 5-3 2-11 20-16 36-7 25-5 41 9 57 12 13 25 16 43 13 8-2 26-18 30-28 7-16 3-40-13-74-2-3-3-6-3-6 0 0 5-1 11-1 11 0 39-5 42-8 1-1 3-2 5-2 5 0 20-14 24-23 4-7 5-13 5-22 0-12-1-14-9-23-9-12-18-18-25-19-15-2-22-1-33 6-13 7-38 34-43 47-2 5-3 4-8-7-6-13-7-14-23-31-8-8-15-13-23-17-7-2-13-4-13-4z m71 73c14 12 10 27-9 31-7 1-15-5-17-14-2-9 2-15 11-18 10-3 9-4 15 1z m-17 7c-4 4-5 5-3 10 5 13 25 10 22-3-3-11-11-14-19-7z m-219 7c-3 1-5 4-6 7-2 6 0 25 1 25 2-1 18 14 18 17 0 3 12 15 15 15 3 0 17 15 17 17 0 3 11 13 14 13 1 0 3 1 4 3 1 2 4 4 6 6 3 1 5 4 6 7 0 2 3 6 5 8 8 5 24 20 24 22-1 2 8 10 12 10 2 1 5 3 6 6 2 3 4 5 6 6 2 1 3 3 3 5 0 1 3 5 7 9 4 4 7 6 7 5 0-1 4 2 8 6 4 4 8 9 8 10 0 3 13 15 16 15 1 0 3 2 4 4 1 2 4 4 7 6 3 1 5 4 5 6 0 2 2 5 4 6 2 0 9 6 16 13 15 14 22 15 34 3 5-4 10-8 11-8 3 0 11-8 10-11-1-3 18-22 24-23 2-1 4-3 4-5 0-4 21-25 26-25 2-1 4-3 5-5 0-5 21-26 25-26 2 0 4-2 5-4 1-7 20-25 23-24 3 1 6-2 6-7 0-3 21-24 24-23 3 1 8-4 6-6-2-1 20-23 23-23 2 0 7-6 12-13 6-8 11-13 14-13 5-1 5-2 6-14 0-13 0-14-5-18-5-4-8-4-15-3-8 1-12 5-113 106-58 58-106 105-107 105-2 0-34-32-36-37-1-2-3-3-5-3-1 0-5-5-10-10-4-6-9-11-10-11-2-1-7-5-11-10-8-8-85-86-91-91-2-2-14-13-25-26-20-20-22-22-30-23-5-1-11 0-13 1z"/>
<glyph glyph-name="chart" unicode="&#76;" d="M43 36c-8 4-14 9-18 16l-8 10 0 178c0 195 0 181 13 195 13 13-3 12 223 13 134 0 207 0 213-2 4-1 11-5 16-10 16-15 16-7 16-197 0-120-1-170-3-176-3-11-13-22-25-27l-10-5-406 0z m416 50c4 4 4 7 4 119l0 114-203 0c-112 0-205 0-206-1-2-2-3-25-3-113 0-62 1-114 1-116 1-2 4-4 6-5 3-1 93-2 201-2 193 0 196 0 200 4z m-314 60l1 53 49 0 0-105-51 0z m57-50c-1 0-1 34-1 75l0 75 49 0 0-59c0-33-1-67-2-76l-1-17-22 0c-12 0-22 1-23 2z m55 102l0 104 21 1c11 0 22 0 25-1l4-1 0-103-1-103-49-1z m55-14l0 89 24 1 24 1 0-181-49 0z"/>
<glyph glyph-name="cloudbase" unicode="&#77;" d="M235 69c0 2 9 10 10 9 0 0-2-3-5-5-2-3-5-5-5-4z m6 0c0 1 9 9 10 9 0 0 0-1-1-2-2-3-9-9-9-7z m11 4c2 3 5 5 6 5 1 0-1-2-3-5-3-3-6-5-7-5-1 0 1 2 4 5z m3-4c0 1 8 9 9 9 1 0-1-2-4-5-5-5-5-6-5-4z m13 0c0 2 10 11 11 11 1 0-1-3-5-6-6-6-6-7-6-5z m7 1c0 1 2 3 4 4 3 2 3 2-1-2-4-4-5-5-3-2z m-10 4c3 2 6 4 6 4 2 0-3-5-7-7-2-1-2-1 1 3z m-31 1c2 2 4 3 4 3 1-1-5-7-6-7-1 0 0 2 2 4z m31 31c11 11 15 12 15 6-1-3-1-3-2 0-1 3-1 3-11-7-6-6-11-10-12-10 0 0 4 5 10 11z m-15-9c0 1 11 11 14 14 2 1-1-2-5-6-8-9-9-10-9-8z m-3 3c2 4 13 15 13 13 0-1-3-5-7-9-4-4-7-6-6-4z m-4 3c0 1 4 5 14 14l4 4-4-6c-8-8-14-14-14-12z m-6 2c0 1 0 2 0 1 1 0 3 1 5 3 2 2 4 4 4 3 1 0-1-2-3-5-3-3-5-3-6-2z m35 2c4 4 6 4 4 0-1-1-3-3-4-3-3 0-2 0 0 3z m-37 1c0 1 2 3 5 5 4 4 4 3 0-2-2-3-5-4-5-3z m1 8c0 1 1 2 3 2 1 0 2 0 2 0 0 0-2-1-3-2-2-2-2-2-2 0z m16 2c0 1 2 3 4 6 3 2 4 3 4 2 0-1-1-3-4-5-2-3-4-4-4-3z m0 6c0 1 2 3 4 5 3 3 4 4 4 3 0 0-1-3-4-5-2-3-4-4-4-3z m0 7c0 0 2 2 4 5 4 5 6 5 3 0-3-3-7-6-7-5z m0 6c0 1 2 3 4 6 3 2 4 3 4 3 0-1-1-4-4-6-2-3-4-4-4-3z m0 6c0 1 2 3 4 6 3 2 4 3 4 3 0-1-1-4-4-6-2-2-4-4-4-3z m0 7c0 1 2 4 4 6 3 2 4 4 4 3 0-1-1-3-4-6-2-2-4-3-4-3z m0 6c0 1 2 4 4 6 3 2 4 4 4 3 0-1-1-4-4-6-2-2-4-3-4-3z m0 7c0 1 2 3 4 6 4 4 6 4 3 0-3-3-7-7-7-6z m0 7c0 0 2 3 4 5 3 3 4 4 4 3 0-1-1-3-4-6-2-2-4-3-4-2z m0 5c0 1 2 4 4 6 3 3 4 4 4 4 0-1-1-4-4-6-2-3-4-4-4-4z m0 8c0 2 14 16 15 15 1 0-3-4-7-9-5-4-8-7-8-6z m21 1c0 2 1 3 1 3 0 1 0 1 1 1 2 0 2-1 0-2-1-1-1-3 0-3 0-1 0-1-1-1-1 0-2 1-1 2z m-38 2c1 1 6 7 10 11 5 5 9 10 9 10-1 1 1 1 2 1 2 0 0-3-9-12-7-7-13-13-13-13 0 0 0 2 1 3z m6 0c0 0 4 5 10 11 5 5 9 9 9 8 0-1-3-5-7-9-4-4-7-8-6-9 0-1 0-1-1 0 0 0-2 0-3-1-1-1-2-1-2 0z m30 4c2 2 4 4 4 3 1-1-4-7-6-7-1 0 0 2 2 4z m-14 5c4 4 7 8 7 9-1 0 0 0 1-1 1 0 0-2-5-8-4-4-8-7-9-7-2 0 1 3 6 7z m10-3c2 2 4 3 4 3 1 0 1-1-1-3-1-1-3-3-4-3-1 0 0 2 1 3z m-35 29c0 1 3 4 6 7 2 3 5 4 5 4 0 0-3-3-5-6-3-4-6-5-6-5z m6 1c0 0 3 3 5 6 7 6 7 4 1-3-4-5-6-6-6-3z m9 2c2 3 9 9 9 8 0-1-10-12-11-12-1 0 0 2 2 4z m8 2c3 4 6 6 7 6 1-1-9-12-11-12-1 0 1 3 4 6z m4-4c2 4 8 10 9 10 2 0-8-11-9-11-1-1-1 0 0 1z m10 4c5 6 6 7 6 6 0-2-9-12-11-12 0 0 1 3 5 6z m2-5c0 2 7 9 8 8 0 0-1-2-4-5-2-2-4-3-4-3z m7 3c1 1 2 2 3 2 1-1-1-6-3-6-1 0-1 2 0 4z m-47 4c0 0 1 2 2 2 1 0 2 2 1 2 0 2 0 2 1 1 1-1 1-2-1-4-2-3-3-3-3-1z m-3-158c-2 3-2 3 0 7l2 4 26 0 25 0 3-3c2-4 2-4 0-8-2-2-4-3-5-3-2 0-2 0 0 2 2 1 4 3 4 5 0 5-3 6-27 6-24 0-27-1-27-6 0-2 2-4 4-5 2-2 2-2 1-2-2 0-4 1-6 3z m14 29c-9 7-11 10-11 13 0 2 1 5 2 6 2 2 7 2 11 0 3-1 3 0 3 33 0 33 0 34-3 32-5-5-13-2-13 5 0 2 1 5 5 8 9 9 17 14 20 14 2 0 8-4 15-9 9-8 10-9 10-14-1-5-7-8-12-5-1 1-3 1-3 1-1 0-1-14-1-33 0-32 0-33 3-32 4 2 9 2 11 0 1-1 2-3 2-6 0-3-2-5-11-13-6-5-13-9-14-9-1 0-8 4-14 9z m27 2c12 9 13 13 7 16-3 2-4 1-8-1-3-2-5-4-5-4-1 0-1 17-1 38 0 21 0 38 1 38 0 0 3-1 6-3 2-2 5-3 7-2 3 1 4 6 2 9-3 4-20 17-22 17-2 0-19-13-22-17-2-3-1-8 2-9 2-1 5 0 7 2 3 2 6 3 6 3 1 0 1-17 1-38 0-21 0-38-1-38 0 0-2 2-4 3-6 5-13 4-13-3 0-3 19-19 24-19 2 0 7 3 13 8z m-40 121c-2 1-3 3-3 5 0 2 6 8 7 7 1-1 0-2-1-3-2-1-3-3-3-4 0-6 3-7 27-7 24 0 27 1 27 7 0 1-1 3-3 4-1 2-1 3 0 3 0 0 2-2 4-4 2-3 2-4 0-7l-3-4-25 0c-22 0-25 0-27 3z m-93 21c-11 3-16 6-24 13-9 9-16 23-16 31l0 7 2-6c4-21 19-38 39-43 5-2 9-3 9-4 0-2 0-2-10 2z m12-2c0 1 35 2 101 2 67 0 102-1 102-2 0-1-35-1-102-1-66 0-101 0-101 1z m204 0c0 0 4 2 9 3 10 2 24 8 31 15 10 8 20 25 22 41l2 7-1-9c-1-21-19-44-42-53-11-4-21-6-21-4z m-210 26c-8 2-14 8-18 16-5 10-5 17-1 27 5 9 7 11 17 16 6 2 8 3 18 2l10-1 1 8c3 20 10 30 26 38 9 4 10 5 21 4 6-1 12-1 14-2 1-1 3 1 7 8 10 18 27 30 47 31 9 1 12 0 22-3 20-8 33-24 36-46 1-6 2-11 2-11 0 0 5-1 10-2 11-2 20-6 27-15 19-22 11-56-15-68-7-3-9-3-113-4-67 0-108 1-111 2z m225 4c18 10 26 30 20 51-2 10-15 23-26 26-4 2-10 3-13 3-6 0-7 2-8 15-1 9-7 22-13 29-6 6-15 11-23 14-11 4-30 3-40-2-9-4-21-15-25-24-6-12-6-11-15-9-20 5-39-4-48-22-2-4-6-20-6-27 0 0-5 0-12 0-11 1-13 1-19-2-10-4-15-13-16-24-1-12 3-21 13-27l7-4 109 0c103 1 110 1 115 3z m-271 35c0 8 7 21 16 30 8 8 23 16 29 16 5 0 6 1 11 11 6 13 16 24 27 30 8 5 25 9 34 9 4 0 7 3 15 11 6 6 14 13 18 15 10 6 28 11 35 11 7 0 4-2-5-3-20-2-41-15-53-32-3-4-4-4-12-4-24 0-47-15-58-38-5-11-5-11-11-12-21-3-40-22-44-44l-2-6z m318 13c-2 19-17 40-36 49-5 3-11 5-12 5-1 0-3 4-4 8-6 21-23 40-44 49-9 4-17 7-24 7-3 0-5 0-5 1 0 4 21-1 36-9 18-9 37-32 40-49 1-5 2-5 7-7 21-6 42-31 44-52 0-11-1-12-2-2z m-310-265l0 8 304 0 0-16-304 0z m129 15c-4 3-5 6-2 9 2 2 45 3 49 0 4-2 3-6-1-9-5-3-41-3-46 0z m12 9c-1 1-10-7-10-9 0-1 3 1 5 4 3 2 5 5 5 5z m5-2c1 1 1 2 1 2-1 0-10-8-10-9 0-2 7 4 9 7z m5-3c2 3 4 5 3 5-1 0-4-2-6-5-3-3-5-5-4-5 1 0 4 2 7 5z m5 0c3 3 5 5 4 5-1 0-9-8-9-9 0-2 0-1 5 4z m17 5c-1 1-9-7-9-9 0-1 2 1 5 4 3 2 5 5 4 5z m1-6c4 4 4 4 1 2-2-1-4-3-4-4-2-3-1-2 3 2z m-8 3c4 5 0 4-5-1-3-4-3-4-1-3 2 0 4 3 6 4z m-34-1c4 5 2 5-2 1-2-2-3-4-2-4 0 0 2 1 4 3z m8 27c-5 4-10 8-10 9-2 3 0 7 2 7 0 0 0-1 0-2-1-1 0-1 1 0 3 2 4 2 8 0 3-2 5-4 5-4 0-1-2-3-4-4-2-2-4-4-3-4 1-1 7 4 13 12 5 5 5 5 1 1-3-2-5-4-6-4 0 0-1 17-1 37l0 37 7 7c5 4 8 8 7 8 0 0-3-2-7-5-13-12-19-15-23-10-1 1-1 3-1 4 1 3 21 19 23 19 2 0 22-17 23-19 2-6-6-8-13-3l-3 3-1-39c0-25 0-38 1-38 1-1-1-4-6-8-4-4-7-8-7-8 0-1 4 2 8 6 5 5 8 9 8 10 0 1 1 2 2 2 2-1 3 0 2 0-1 2 3 3 6 2 2-2 3-8 1-10-1 0-1 0-1 2 1 2 1 2-1 1-2-1-2-3-2-3 1-2-14-14-17-14-2 0-7 4-12 8z m23 4c6 6 10 10 9 10-1 0-6-4-12-10-5-6-9-10-9-10 1 0 6 4 12 10z m-7 8c0 1-3-1-6-5-4-4-7-7-7-8 0-1 3 2 7 5 3 4 6 7 6 8z m-14-1c-1 1-6-4-6-6 0-1 1 0 3 2 2 2 4 4 3 4z m-6-1c4 4 2 5-2 1-2-2-3-4-2-4 1 0 3 1 4 3z m20 15c0 1-1 0-4-2-2-3-4-5-4-6 0-1 2 0 4 3 3 2 4 4 4 5z m0 6c0 1-1 0-4-3-2-2-4-4-4-5 0-1 2 0 4 3 3 2 4 5 4 5z m-1 4c3 5 1 5-3 0-2-3-4-5-4-5 0-1 4 2 7 5z m1 10c0 0-1-1-4-3-2-3-4-5-4-6 0-1 2 0 4 3 3 2 4 5 4 6z m0 6c0 0-1-1-4-3-2-3-4-5-4-6 0-1 2 1 4 3 3 2 4 5 4 6z m0 7c0 1-1-1-4-3-2-2-4-5-4-6 0 0 2 1 4 3 3 3 4 5 4 6z m0 6c0 1-1-1-4-3-2-2-4-5-4-6 0 0 2 1 4 3 3 2 4 5 4 6z m-1 4c3 4 1 4-3 0-2-3-4-5-4-6 0-1 4 3 7 6z m1 9c0 1-1 0-4-3-2-2-4-5-4-5 0-1 2 0 4 2 3 3 4 5 4 6z m0 7c0 0-1-1-4-4-2-2-4-5-4-6 0 0 2 1 4 4 3 2 4 5 4 6z m7 13c-1 1-15-13-15-15 0-1 3 2 8 6 4 5 8 9 7 9z m-10 9c-1 1-22-19-22-21 0-1 5 3 11 9 6 6 11 12 11 12z m-1-8c9 9 4 7-5-2-6-6-10-11-10-11 0-2 8 5 15 13z m17-10c4 5 2 5-2 1-2-2-3-4-2-4 1 0 3 2 4 3z m-3 3c2 2 2 3 1 3 0 0-2-1-4-3-1-1-2-3-1-3 1 0 3 2 4 3z m-36 29c0 0 2 3 4 5 7 7 6 8-1 1-6-5-8-5-8 0 0 5 6 7 27 7 16 0 21-1 23-3 4-2 5-7 2-8-1-1-1 0 0 1 0 2 0 2-2 0-2-2-4-4-5-4-2 0-1 2 2 5 2 2 4 4 3 4-1 0-4-2-6-4-2-3-4-5-5-5-1 0 0 3 3 6 6 8 5 8-2 0-8-7-12-7-4 1 3 3 4 5 3 5-1 0-4-2-6-6-3-3-6-6-7-6-2 0-1 2 2 5 7 8 6 9-2 1-3-3-7-6-7-5-1 1 1 3 3 6 3 2 5 4 5 5 0 1-5-4-10-9-2-2-4-3-4-2-1 1 1 3 3 5 2 3 4 5 3 6 0 0-3-2-6-6-4-5-8-7-8-5z m117 20c0 1-24 2-106 2l-107 0-8 4c-17 8-29 23-32 42-5 27 17 57 44 61 7 1 7 1 10 10 4 11 18 26 30 32 9 5 20 8 31 8 6 0 7 0 11 5 10 15 31 28 50 30 6 1 11 3 12 4 1 1 1 1 1 0 0-1 5-3 11-4 29-4 54-24 63-52 3-10 3-10 11-12 8-3 22-13 28-20 2-3 6-9 8-13 9-21 9-37 0-58-9-19-24-31-47-36-4-1-9-3-9-3-1-2-1-1-1 0z m17 29c26 14 32 47 13 68-8 8-19 14-25 14-2 0-5 1-8 1-4 1-4 1-5 10-2 14-6 24-16 34-11 11-22 16-37 17-23 1-41-9-54-31-2-5-4-8-4-8 0 0-5 1-10 2-12 2-19 1-29-5-13-6-21-17-23-34l-2-10-10 0c-14 1-23-2-30-10-11-13-11-31 2-44 3-3 8-7 11-7 3-1 46-2 112-2l107 1z"/>
<glyph glyph-name="clouds" unicode="&#78;" d="M65 104c-23 8-44 26-55 47-6 12-6 13-6 39 0 23 1 27 5 36 6 14 9 18 24 31 13 12 23 17 39 20 10 2 10 2 18 18 18 35 55 60 93 61 8 0 14 1 14 1 0 4 25 29 38 37 23 15 36 19 68 19 21 0 30-1 38-4 31-10 64-39 77-67 4-8 8-17 9-21 1-5 3-7 18-14 29-14 49-36 59-65 6-19 6-49-1-67-5-17-12-27-25-40-12-13-28-23-43-29l-12-5-174 0c-161 0-175 0-184 3z m359 45c13 5 27 18 33 31 5 10 6 14 6 29 0 14-1 19-5 28-10 20-27 32-53 36-7 1-13 3-15 5-1 1-3 9-4 18-8 53-54 84-106 70-22-5-37-17-49-39-12-21-11-20-29-17-33 6-60-7-72-34-3-7-10-37-10-43 0 0-8 0-17 1-22 2-32-1-44-12-12-12-16-28-10-46 4-15 15-26 30-30 4 0 80-1 171-1 154 1 165 1 174 4z"/>
<glyph glyph-name="cloudtemp" unicode="&#79;" d="M79 99c-20 2-37 10-51 24-13 12-22 28-26 45-3 13-3 33 1 45 11 33 39 57 72 62l8 1 2 5c4 14 13 29 24 40 20 22 48 34 78 34l11 0 2 4c7 11 22 25 34 34 21 13 41 20 67 21 17 0 29-1 45-7 19-6 35-16 50-31 15-15 27-35 32-54 1-4 3-8 3-9 0-1 4-2 8-4 32-10 58-36 68-68 7-22 7-50-1-71-13-34-41-59-75-68-5-1-13-3-18-3-13-1-323-1-334 0z m345 43c11 4 20 10 28 17 11 12 18 28 20 44 1 19-9 43-24 55-12 10-22 14-41 17-6 1-12 2-12 3 0 1-1 6-2 12-3 26-11 43-28 60-27 25-65 31-98 14-18-9-30-20-41-41-3-6-6-12-7-12 0-1-6 0-13 1-15 3-26 3-35 1-23-7-40-23-48-46-2-4-6-29-6-33 0-1-4-1-17 1-10 1-13 1-19 0-20-3-37-20-40-41-4-23 12-47 36-53 5-2 29-2 173-2l167 0z m-139 15c-2 1-4 2-4 2 0 1-1 1-1 1-1 0-2 0-2 1 0 0-1 1-2 2-3 0-4 1-8 6-6 6-7 7-7 8 0 0 0 1-1 1 0 0-1 1-2 2 0 2 0 3-1 3-1 0-3 11-3 19 0 9 2 19 3 19 0 0 1 1 1 3 1 1 4 6 7 9l7 7 0 35c1 33 1 36 3 39 2 5 6 9 10 12 6 5 25 5 31 0 0 0 2-1 3-2 3-2 8-10 8-13 0-1 1-2 1-2 1 0 1-2 1-5l0-6 7 0c10-1 12-2 12-9 0-6-2-7-12-7l-7 0 0-11 8 0c4 0 7 0 7-1 0 0 1-1 2-2 2 0 2-1 2-5 0-7-2-8-11-8l-8 0 0-15 5-5c3-3 5-5 5-6 0 0 0-1 1-1 1-1 4-7 4-9 0 0 1-1 1-1 2-1 3-15 2-23-1-6-5-16-8-19 0-1-1-2-1-2 0-2-7-8-12-11-3-2-6-4-6-4-2-3-26-4-35-2z m-13 47c1 2 2 5 2 6 3 3 13 12 15 14 1 1 3 2 4 3 0 0 2 1 2 1 1 0 2 1 3 1 0 1 1 17 1 35l1 33 6 1 7 0 0 5c-1 3-2 6-2 6-1 0-1 1-1 1 0 3-3 4-9 5-5 0-6 0-8-2l-3-3-1-38 0-37-3-3c-2-2-5-5-7-6-2-2-4-5-6-7-1-2-2-4-2-4-1-1-1-4-2-8 0-6 0-7 1-7 1 0 2 1 2 4z"/>
<glyph glyph-name="co2" unicode="&#80;" d="M168 67c-29 5-58 27-72 56l-5 10-5 1c-8 1-23 6-31 11-23 12-41 32-50 56-7 20-7 57 2 77 11 27 36 51 63 60l6 2 1 6c9 45 46 85 90 96 19 5 53 5 71 0 19-6 40-18 54-34l9-9 9 4c45 14 96-4 120-45 2-3 5-8 6-11 1-4 2-4 10-7 14-5 25-12 38-24 20-21 28-40 28-71 0-30-8-50-28-70-18-17-39-27-61-29l-9-1-3-6c-8-22-29-42-52-51-12-5-17-6-32-7-10 0-15 0-22 2-11 2-21 6-30 11l-6 3-5-5c-14-13-35-23-53-25-11-2-32-1-43 0z m43 45c17 5 26 14 38 33 11 16 13 19 15 19 0 0 6-6 13-13 13-15 19-19 29-23 19-7 39-2 54 12 10 10 13 18 16 40 1 6 2 12 2 13 1 0 8-1 16-2 17-2 27-2 36 1 23 8 37 27 39 50 2 18-7 37-21 47-9 7-17 10-31 13-7 1-13 2-14 3 0 0-2 5-4 11-3 15-7 22-16 31-9 8-18 13-31 16-16 3-28 0-49-14-7-4-14-8-15-8-1 0-6 7-11 15-18 27-33 39-59 45-8 2-24 2-32 1-30-6-55-29-64-58-2-6-4-21-5-36l0-5-13-2c-17-3-25-6-34-12-16-11-28-31-28-51 0-27 21-53 49-60 6-2 10-2 21-2l13 1 4-14c4-19 8-26 18-36 5-5 9-8 15-11 7-4 11-5 20-7 1 0 6-1 12 0 7 0 12 1 17 3z m97 85c-1 0-1 3-1 6 0 4 0 5 8 14 5 5 10 11 12 14 4 5 5 13 2 15-2 3-8 2-14 0-6-3-7-2-7 3 0 7 1 8 6 11 14 6 29 2 34-7 0-2 1-6 1-9 0-9-3-15-14-26l-8-10 11 0c11 0 12 0 13-1 2-3 1-9 0-10-2-2-41-2-43 0z m-149 11c-16 2-28 14-33 32-2 8-1 27 1 35 7 23 24 35 47 33 10 0 16-3 21-7 3-3 3-4 3-9 0-11-2-13-10-8-11 7-22 7-30 0-13-12-12-45 2-54 3-3 4-3 12-3 8 0 9 0 16 4 9 4 10 4 10-6 1-8-1-11-8-14-9-4-20-5-31-3z m78 0c-22 5-32 21-32 48 0 19 5 32 15 41 9 9 20 12 37 11 14 0 21-3 28-10 10-9 13-19 13-39 0-19-3-30-12-39-6-6-12-10-21-12-8-2-21-2-28 0z m22 19c10 2 15 12 16 27 1 17-3 28-9 32-8 5-20 5-27 0-2-1-5-5-7-9-3-6-3-7-3-19 0-16 3-23 8-28 6-4 15-5 22-3z"/>
<glyph glyph-name="cold" unicode="&#81;" d="M341 10c-38 19-57 51-57 96 0 34 9 55 32 77l16 16 0 117c0 110 0 119 8 131 11 18 26 27 48 27 22 0 37-9 48-27 7-12 8-21 8-102l0-89 39 0 0-36-19 0c-19 0-20-1-20-10 0-6 6-15 18-26 24-23 35-50 33-84-2-30-10-50-29-70-21-21-36-27-72-29-28-1-34-1-53 9z m78 41c42 19 46 87 6 105l-13 6 0 250-10 10c-12 12-14 12-26 2l-10-7-1-128-1-127-12-7c-26-15-34-46-19-75 17-33 52-45 86-29z m-19 15c0 3 4 13 8 22 4 10 8 22 8 27 0 7 2 9 12 9 11 0 12-1 12-16 0-24-14-48-29-48-7 0-11 2-11 6z m-234 38l-12 12 54 54 0 61 36 0 0-29c0-27 1-29 13-42 13-12 14-14 12-33-1-12-3-22-3-23-1-1-6 3-12 8l-10 9 0-29-36 0 0 30-30-30z m-54 36l0 20-12-9-12-9-24 24 22 22-42 0 0 36 78 0 20 20 21 20 13-12 12-13-22-23-22-22 0-74-32 0z m-85 103l-11 11 30 30-30 0 0 36 30 0-30 30 11 11c6 6 13 11 15 11 2 0 16-12 30-26l26-26 57 0 0-36-61 0-26-26c-14-14-27-26-28-26-1 0-7 5-13 11z m173 8c-40 20-42 75-4 100 36 25 88-4 88-49 0-43-45-70-84-51z m-58 109l-20 20-78 0 0 36 42 0-11 11-11 11 26 26 22-22 0 42 32 0 0-74 22-22 22-23-12-13c-7-6-13-12-14-12 0 0-9 9-20 20z m66 44l0 30-54 54 24 24 30-30 0 30 36 0 0-30 30 30 24-24-54-54 0-60-36 0z"/>
<glyph glyph-name="compare" unicode="&#82;" d="M413 396c1 21 0 24-7 25-4 1 5 2 20 2 24 0 25-1 10-3l-18-2 0-23c0-13-2-23-3-23-2 0-3 11-2 24z m-5-4c0 21-1 24-8 24-7 0-12 10-12 27 0 5 2 9 6 9 4 0 7 3 8 6 4 9 45 8 47-1 2-5 2-5 3 2 0 7-2 9-12 9-9 0-12 2-12 8 0 4 4 8 8 9 4 1 8 1 8-1 0-2-3-4-6-4-3 0-6-2-6-4 0-2 6-4 12-4 10 0 12-2 12-10 0-5 2-10 5-12 3-1-9-2-25-2-44 1-44 1-44-7 0-4 2-5 3-2 1 3 11 5 31 5 26 0 30-1 30-7 0-6 1-6 4 1 3 8 4 8 4-1 0-13-4-21-12-21-6 0-8-4-9-25l-1-25-1 27c-1 25 0 27 8 28 5 1-4 2-20 3-19 0-29 2-30 5-1 3-3 2-3-2 0-4 3-7 8-7 6 0 8-4 9-26 0-14 0-26-2-26-2 0-3 11-3 24z m44 42c0 5-6 6-26 6-21 0-25-1-24-6 2-4 9-6 26-6 19 0 24 1 24 6z m-8 22c0 2-8 4-18 4-11 0-18-2-16-4 1-2 10-4 18-4 9 0 16 2 16 4z m-26-79c-2 3-2 14-1 23 1 15 3 18 10 19 9 1 9 1 8-22-1-18-3-23-8-24-4-1-8 1-9 4z m14 21c0 13-2 18-6 18-4 0-6-5-6-18 0-13 2-18 6-18 4 0 6 5 6 18z m-36 65c0 7 2 9 12 9 7 0 12 2 12 4 0 2-3 4-6 4-3 0-6 2-6 4 0 3 3 4 6 2 4-1 8-2 8-2 1 0 2-4 2-8 0-6-3-8-12-8-8 0-12-2-13-7-2-5-2-5-3 2z m-356-375l0 56 22 0c27 0 27 0 25-64l-1-46-23-1-23-1z m60 28l0 84 48 0 0-168-48 0z m73-17l1 67 44 0 1-67 1-67-48 0z m74-64c-2 1-3 39-3 84l0 81 25-1 25-1 1-74c1-41 0-78-1-83-2-8-5-9-24-9-11 0-22 1-23 3z m73 53l0 56 44 0 0-112-44 0z m9 109c-3 3-5 8-6 11-1 9-37 32-45 30-3-2-9 0-14 2-6 3-13 3-30-2-12-4-22-9-22-11 0-1-4-6-10-9-9-6-11-6-20 0-6 3-10 9-10 12 0 8-28 24-41 23-14-1-47-23-47-31 0-8-14-22-22-22-8 0-22 14-22 22 0 10 16 23 25 20 11-2 39 17 39 28 0 5 4 12 8 16 10 9 28 5 31-6 3-11 33-28 44-25 5 1 11 0 15-3 7-6 46 5 54 16 11 14 31 12 38-4 6-15 36-36 46-33 10 2 24-9 24-19 0-16-25-27-35-15z m-13 104c0 4 3 8 6 9 4 2 6 8 6 18l0 15-24-7c-31-10-32-10-32 2 0 8 5 13 28 26l28 16 0 24c0 19 2 24 8 28 12 6 20-5 20-30l0-22 29-17c20-12 29-20 30-26 2-11-6-12-36-1l-23 8 0-16c0-10 2-16 6-18 3-1 6-5 6-9 0-7-3-8-26-8-22 1-26 1-26 8z m111 70c7 1 9 5 10 21l2 20-1-21c0-19-1-21-10-21-8-1-8 0-1 1z m29 67c0 6-5 6-32 5-18-1-32 0-32 2 0 2 15 3 34 3 31 0 34-1 34-8 0-4-1-8-2-8-1 0-2 3-2 6z m-32 39c0 3-2 7-5 8-3 1 1 3 7 3 7 0 10-2 8-3-3-2-6-6-7-9-2-5-3-5-3 1z"/>
<glyph glyph-name="comparisongraph" unicode="&#83;" d="M0 256l0 256 37 0 0-155c0-142 0-156 4-167 1-6 5-13 7-15 2-2 3-4 3-6 0-1 3-6 8-9 6-5 8-6 14-6 7 1 8 2 12 9 2 4 4 8 5 9 1 0 2 2 2 4 0 2 2 7 3 12 2 5 4 13 4 18 1 6 3 14 4 18 2 5 3 12 3 15 1 17 15 53 27 67 12 13 21 17 42 16 34 0 48-12 66-55 9-21 15-27 26-28 11-1 12 5 21 84 6 54 24 86 59 103 7 3 16 7 20 7 3 1 35 2 69 3l62 0 0-30-57-1c-65-1-72-2-88-16-19-17-26-41-31-107-3-30-8-52-13-56-1-2-2-3-1-3 5 0-13-13-21-16-15-4-40-1-53 7-10 7-25 26-25 33 0 1-1 4-3 6-2 1-4 6-5 11-2 5-4 12-6 15-5 10-22 15-30 9-4-4-12-19-11-23 1-1 1-3 0-4-1 0-2-2-1-4 1-2 0-4-2-4-2-1-3-3-3-4 1-2 1-3 0-3-1 0-2-4-2-7 0-4-3-20-7-35-3-15-7-31-8-36-1-4-3-8-4-8-1 0-3-3-4-7-3-8-13-20-23-27-7-5-10-5-29-5-19 0-21 0-27 5l-7 5 0-49 0-49 26 0 0 49 97 0 0-49 10 0 0 37 1 38 98 0 1-24c0-13 0-30 0-38l0-13 13 0 0 17c0 9 0 33 0 52l-1 35 97 0 0-104 14 0 0 358 96 0 0-358 23 0 0-33-512 0z"/>
<glyph glyph-name="continentality" unicode="&#84;" d="M139 4c3 1 30 14 61 30 46 22 57 27 60 25 3-2 3-2-1-1-2 1-25-9-61-27-31-16-59-29-60-29-3 0-2 1 1 2z m254 0c3 1 30 14 61 30 31 15 56 27 56 27 0-2-115-59-118-59-3 0-2 1 1 2z m-296 15c-3 1-4 3-3 3 1 0 4-2 7-3 3-2 4-3 3-3-1 0-4 1-7 3z m-14 6c-2 1-4 3-3 3 2 0 5-2 7-3 3-2 4-3 3-3-1 0-4 1-7 3z m254 0c-2 1-4 3-3 3 2 0 5-2 7-3 3-2 5-3 3-3-1 0-4 1-7 3z m-27 12c-3 1-4 2-3 2 1 0 4-1 7-2 2-2 4-3 3-3-1 0-5 1-7 3z m-173 8c0 1 103 53 104 52 1-1-23-13-51-27-29-14-53-26-53-25z m255 0c0 1 13 8 29 16l27 13-4 7c-2 5-2 6 0 3 8-10 9-9-23-25-17-9-30-15-29-14z m-364 4c-3 1-4 2-3 2 1 0 4-1 7-2 3-2 4-3 3-3-1 0-4 1-7 3z m99 0c-3 1-4 2-3 2 1 0 4-1 7-2 3-2 4-3 3-3-1 0-4 1-7 3z m155 0c-3 1-4 2-3 2 1 0 4-1 7-2 3-2 4-3 3-3-1 0-4 1-7 3z m99 0c-3 1-4 2-3 2 1 0 4-1 7-2 3-2 4-3 3-3-1 0-4 1-7 3z m-367 6c-3 1-4 2-3 2 1 0 4-1 7-2 3-2 4-3 3-3-1 0-4 1-7 3z m99 0c-3 1-4 2-3 2 1 0 4-1 7-2 3-2 4-3 3-3-1 0-4 1-7 3z m254 0c-3 1-4 2-3 2 1 0 4-1 7-2 3-2 4-3 3-3-1 0-4 1-7 3z m-268 6c-3 1-4 2-3 2 1 0 4-1 7-2 3-2 4-3 3-3-1 0-4 1-7 3z m247 2c-21 9-20 8-14 7 4-1 5 0 10 12 3 7 6 13 6 13 1-1-1-7-4-14-3-7-5-13-4-13 6-2 22-10 20-10-1 0-7 2-14 5z m-261 3c-2 2-4 3-3 3 2 0 5-1 7-3 3-1 4-2 3-2-1 0-4 1-7 2z m305 5c-3 4-3 4 5 15 4 6 8 12 8 13 1 3 2 3 2 1 0-2-4-8-8-15l-8-11 5-3c2-2 3-3 2-3-1-1-4 1-6 3z m9-3c0 2 20 29 21 29 1 0-3-6-8-13-11-15-13-18-13-16z m-328 4c-2 2-4 3-3 3 2 0 5-1 7-3 3-1 5-2 3-2-1 0-4 1-7 2z m245 5c-11 5-10 6 1 1 4-1 8-2 8-1 1 1 4 7 7 15 3 7 6 13 7 12 1-1-11-29-13-31-1 0-6 1-10 4z m-258 1c-3 2-4 3-3 3 1 0 4-1 7-3 2-1 4-2 2-2 0 0-4 1-6 2z m400 4c-7 11-10 17-9 17 1 0 4-4 7-9 5-9 6-10 11-6 3 2 3 12 4 117l0 116 1-117 0-116-5-3c-6-3-6-3-9 1z m-160 2c-3 2-4 3-3 3 1 0 4-1 7-3 2-1 4-2 3-2-1 0-5 1-7 2z m65 7c-2 5-3 8-2 7 1 0 3-3 4-7 3-7 4-7 10-2 2 3 4 3 4 2 0-2-8-8-10-8-1 0-4 4-6 8z m-79-1c-3 2-4 3-3 3 1 0 4-1 7-3 3-1 4-2 3-2-1 0-4 1-7 2z m152 6l-4 6 4-5c4-5 6-8 4-8-1 0-3 3-4 7z m-64 5c-2 5-2 6 6 20 5 7 10 14 11 14 2 0 6-12 5-13 0-1-2 2-3 5-1 4-2 6-3 6 0-1-4-7-9-14-7-12-7-13-5-18 2-3 3-6 2-6 0 0-2 3-4 6z m-22 0c2 7 4 9 6 6 1-2 1-2 0-1-1 1-3-1-4-4-3-5-3-5-2-1z m-311 1c-2 5 4 7 8 2 2-1 3-3 1-3-1 0-3 1-4 3-1 1-1 1-2-2-2-3-2-3-3 0z m405 6l-4 6 4-5c4-5 5-8 4-8-1 0-3 3-4 7z m-45 0c-3 7-2 9 1 3 2-4 3-7 2-7 0 0-2 1-3 4z m-351 1c-1 2-2 6-2 7-1 4-1 4-3 0-3-3-3-3-3 6 0 8 0 11 4 13 3 2 5 2 8-2 3-2 6-4 7-4 2 0 3-1 3-2 0-3-7 0-10 5-2 2-3 2-7 0-5-3-5-10 1-12 2 0 4-2 3-3 0-2 0-4 1-6 3-6 1-7-2-2z m187-2l-5 2 7 16c7 17 11 23 8 14-1-2-4-10-7-17-5-10-5-12-2-13 6-3 7-2 13 11 3 7 6 13 6 12 2-1-11-27-13-27-2 0-5 1-7 2z m62 2c-3 3-3 4 4 14 5 6 9 13 9 14 1 2 1 2 1 0 1-1-3-7-7-14l-8-11 4-3c3-2 4-4 2-4-1 0-3 2-5 4z m9-3c0 2 19 29 21 29 0 0-4-6-9-14-10-15-12-17-12-15z m37 9c0 3 2 6 3 7 2 3 1-1-2-7l-3-5z m61 14c-11 26-10 25-5 22 2-2 3-3 2-4-1-1 1-8 5-18l8-17 4 6c8 12 11 14 4 4-3-6-7-11-8-11-1 0-6 8-10 18z m32-9c-2 3-3 6-3 6 0 1 2-2 4-5 5-7 3-8-1-1z m-76 5c-1 3-4 7-6 9-2 2-3 3 0 3 4 0 10-9 8-12-1-2 0-2 3 0 4 2 4 2 2-2-3-6-5-5-7 2z m-90 4c-2 5-3 8-2 7 1 0 2-4 4-7 3-7 4-7 9-2 3 2 5 3 5 2 0-2-8-8-11-8 0 0-3 4-5 8z m76-2c-1 2-3 5-5 8-2 4-1 4 3-1 5-5 6-9 4-9 0 0-1 1-2 2z m28 11c7 12 15 24 15 22 0-2-16-27-18-30-2-1 0 2 3 8z m-317-2c-3 2-5 6-6 8 0 2-2 4-3 3-1 0-2 1-2 2 0 1 1 2 3 2 3 0 5-2 5-7 1-4 3-7 6-8 2-1 4-2 4-3 0-3-1-3-7 3z m222 3c-3 5-2 6 6 19 5 8 10 15 11 15 1 0 6-12 5-14-1 0-2 2-3 6-1 3-3 6-3 5 0 0-4-6-9-13-7-13-8-14-5-19 2-3 2-5 2-5-1 0-2 2-4 6z m-22 0c2 6 4 9 6 5 1-1 1-2 0-1-1 1-3-1-4-3-3-6-3-6-2-1z m-217 13c0 13 0 15 3 15 2 0 5 1 8 2 3 3 4 3 11-3 4-3 5-5 2-4-2 1-5 3-7 4-3 3-4 2-9 0-6-3-6-4-6-14 0-8 0-11 2-10 1 1 2 0 1-1 0-2-2-3-3-4-2 0-2 4-2 15z m310-7l-3 7 4-5c4-5 5-8 3-8 0 0-2 3-4 6z m-44 1c-3 7-3 9 1 2 2-3 3-6 2-6 0-1-2 1-3 4z m99 1c0 2 20 30 21 30 0 0-3-6-8-14-11-15-13-18-13-16z m-156 6c1 3 2 6 3 7 3 3 2-2-1-7l-3-5z m61 16c-5 11-8 20-8 21 1 0 5-8 10-20l8-20 4 6c9 11 11 13 5 3-4-5-7-10-9-10 0 0-5 9-10 20z m33-12c-2 4-2 4 1 2 2-1 3 0 6 7 2 5 4 8 4 8 1 0-1-6-3-11-5-11-5-11-8-6z m57 8c5 6 9 12 9 14 1 2 2 2 2 0 0-3-14-24-16-24-1 0 1 5 5 10z m50-4l-4 7 4-5c4-5 5-8 4-8 0 0-2 3-4 6z m-340 0c-4 3-7 3-8 2 0-1-3-2-4-2-3 0-2 1 2 4 5 3 7 3 8 1 1-1 4-4 7-6 7-5 2-4-5 1z m157-1c-2 5-1 6 1 2 2-3 2-3 5 0 3 4 3 3 1-1-3-5-5-5-7-1z m195 5c-2 3-4 7-5 10-3 4-3 4 0 1 4-5 10-15 9-15-1 0-2 2-4 4z m-347 0c-3 1-5 5-7 8l-2 7-2-5c-3-8-11-11-24-10-14 1-20 5-22 12-1 5-4 8-4 4 0-3-10-12-12-12-2 0-2 5-2 13 0 11 0 12 4 12 2 0 6 2 10 3 5 3 6 3 13-2 4-2 6-4 5-4-1 0-4 1-7 3-5 4-5 4-11 1-3-1-7-3-9-3-3 0-3-1-3-9 0-6 0-10 1-10 2 0 8 6 9 10 2 4 7 3 8-2 0-1 0-4 0-5 0-1 3-4 6-5 14-7 32-4 35 5 3 6 10 6 10 0 0-3 2-7 6-9 5-4 4-6-2-2z m254 6c-2 4-3 7-2 7 1-1 3-4 4-7 3-7 4-7 10-2 2 2 4 3 4 2 0-2-8-8-10-8-1 0-4 3-6 8z m-88 5c7 12 15 24 15 22 0-2-16-28-19-30-1-2 1 2 4 8z m58-5c0 2 2 7 4 10l3 5-2-5c-1-3-2-8-4-10l-3-5z m103 4l-4 7 4-5c4-5 6-8 4-8-1 0-3 3-4 6z m-64 5c-3 5-2 6 6 20 5 8 10 14 11 14 2 0 6-12 5-13 0 0-2 2-3 6-1 3-2 6-3 5 0 0-4-7-9-14-7-12-7-13-5-18 2-3 3-5 2-5 0 0-2 2-4 5z m-22 1c2 6 4 9 6 5 1-1 1-2 0-1-1 1-3-1-4-4-3-5-3-5-2 0z m93 6l-3 6 4-4c4-5 5-8 3-8 0 0-2 3-4 6z m-44 1c-3 7-3 8 1 2 2-3 3-6 2-7 0 0-2 2-3 5z m-251 1l8 3 4-4c3-4 3-4 0-1-4 3-5 3-8 0-2-1-6-2-8-2-3 0-2 1 4 4z m-76-1c-2 1-1 2 3 2 4 0 6-1 6-2 0-2-6-2-9 0z m37 3c-3 2-5 3-7 1-2-1-3-1-4-1-2 2 7 6 10 3 1-1 4-3 6-4 2-2 3-3 2-3-1 0-4 1-7 4z m18 0c-2 1-2 1 3 1 3 0 5 0 4-1-2-3-3-3-7 0z m36 1c-2 1-4 4-5 7 0 2-1 4-3 4-1 0-2 0-2 1 0 1 1 2 4 2 2 0 4-2 4-6 1-4 3-8 6-9 3-1 4-2 3-2-2 0-4 1-7 3z m179 2c1 3 2 6 3 7 3 3 2-1-1-7l-3-4z m61 17c-5 11-8 20-8 20 1 1 5-8 10-19l9-20 3 5c9 12 12 14 5 4-3-6-7-10-8-10-1 0-6 9-11 20z m-291-15c-2 1-3 4-4 7-2 7-3 7-6-1-1-3-4-6-5-6-2 0-2 1 1 4 1 2 3 5 4 7 2 5 7 4 8-2 1-3 3-6 4-7 3-2 1-4-2-2z m324 4c-2 2-3 5-3 6 0 0 2-2 4-6 5-7 3-8-1 0z m-376 2c-4 5-6 14-2 11 1 0 1-3 1-5 0-2 3-5 6-7 3-3 4-5 3-5-2 0-5 3-8 6z m-26 9c0 8 1 11 1 7 0-4 0-11 0-14 0-4-1 0-1 7z m326-9c-1 5-1 6 1 2 2-4 3-4 5 0 3 3 3 3 1-1-2-5-5-6-7-1z m-314 2c2 2 4 5 4 7 2 5 4 3 3-2-1-3-4-6-6-7-4-2-4-2-1 2z m328 13c7 13 15 25 15 23 0-2-16-28-19-31-1-1 1 3 4 8z m-209-5c-2 0-5 2-7 4-2 2-4 2-9 0-7-4-8-4-8-2 0 1 1 2 3 2 2 0 6 1 8 3 3 2 5 2 11-3 7-6 7-6 2-4z m36 2c6 4 6 4 10 1 3-4 3-6-2-3-2 1-5 1-7 0-6-3-6-1-1 2z m15 1c-3 1-5 4-7 8l-2 6-2-5c-3-7-11-10-24-9-14 1-20 4-22 12-1 5-4 8-4 3 0-3-9-12-12-12-4 0-2 3 2 5 3 1 6 5 7 8 3 5 9 5 9 0 0-2 0-4 0-5 0-2 3-4 6-5 15-7 32-5 36 5 2 6 9 6 9-1 0-3 2-6 6-8 5-5 4-6-2-2z m-108 4c-5 5-6 5-9 3-3-3-12-7-12-5 0 0 4 3 9 5 8 4 8 4 12 0 2-2 5-4 7-4 1 0 2-1 2-2 0-3-4-2-9 3z m14 1c-1 1 1 2 3 2 2 0 4-1 4-2 0-1-1-2-3-2-1 0-3 1-4 2z m-64 4c-5 3-6 4-9 1-2-2-6-3-8-3-3 0-1 2 4 4l9 5 4-4c2-2 6-5 7-5 3-1 3-1 0-2-1 0-5 2-7 4z m13 1c-2 1 1 1 6 1 5 0 8-1 8-1 0-3-11-3-14 0z m39 1c-1 2-3 5-3 6 0 2 1 2 2-1 2-2 4-5 6-6 1-2 2-3 1-3-1 0-4 2-6 4z m-18 1c4 2 7 5 8 8 1 5 6 7 8 3 1-2 1-2-2-1-2 1-3 0-4-2-2-6-7-11-12-11-3 0-2 1 2 3z m-58 13l0 13 1-11c1-10 1-12 4-11 2 1 4 1 5 1 1 0 3 3 5 6 3 7 9 7 10 1 0-3 2-7 4-9 3-2 4-4 3-4-4 0-10 9-10 13-1 4-1 4-3 0-2-2-4-4-4-5 0-1-4-3-8-5l-7-3z m235-5l-6 5-6-4c-4-3-8-4-8-3-1 1-1 1-1 2 1 0 4 2 8 4 6 3 7 3 11-1 2-2 5-4 6-4 2 0 3-1 3-2 0-3-1-2-7 3z m17 1c0 1 1 2 3 2 1 0 3-1 4-2 0-1-1-2-3-2-2 0-4 1-4 2z m-107 2c-2 1-1 2 3 2 4 0 6-1 6-2 0-2-5-2-9 0z m37 2c-3 3-5 3-7 2-2-1-3-2-4-1-2 2 7 5 10 3 1-1 4-3 6-5 2-1 3-3 2-3-1 0-4 2-7 4z m55 1c-3 2-5 6-6 8 0 2-2 4-3 3-1 0-2 1-2 2 0 1 2 2 4 2 2 0 4-2 5-7 0-4 2-7 5-8 2-1 4-2 4-3 0-3 0-2-7 3z m-37-1c-2 2-2 2 3 2 3 0 5-1 4-2-2-2-3-2-7 0z m-68 4c-5 4-5 4-10 1-4-2-8-3-11-3-5 1-5 1 1 2 3 1 8 2 10 4 4 2 6 1 12-3 4-3 6-5 5-5-1 0-4 2-7 4z m-50 2c-2 2-5 4-6 5-1 3-2 3-5 0l-5-4 4 5 4 4 5-4c3-3 6-6 7-6 3-3 1-2-4 0z m103 0c-1 0-3 4-4 7-2 7-3 6-6-1-1-3-3-6-5-6-2 0-1 1 1 3 1 2 3 6 4 7 2 6 7 5 8-2 1-3 3-6 4-6 3-2 1-4-2-2z m-51 5c-5 5-7 15-3 12 1-1 2-3 2-5 0-2 2-6 5-8 3-2 4-4 3-4-1 0-5 2-7 5z m-104 2l-5 4-7-4c-4-2-7-3-8-2-1 0-1 1 0 1 0 1 4 3 7 5 7 3 7 3 11-1 3-2 6-4 7-4 1 0 2-1 2-2 0-3-1-3-7 3z m65-3c0 0 3 1 7 0 4 0 7-1 7-1 0-1-3-1-7-1-4 0-7 1-7 2z m24 3c2 2 4 6 5 8 1 5 3 2 2-3-1-2-3-5-6-6-4-2-4-2-1 1z m-73 1c0 1 1 2 3 2 2 0 5-1 5-2 1-1 0-2-3-2-2 0-4 1-5 2z m16 1c2 2 5 3 5 3 1 0 3 3 4 6 2 4 3 6 4 4 1-3-6-12-12-14-5-2-5-2-1 1z m-29 4c-3 2-6 6-6 8 0 2-2 4-3 3-1 0-2 1-2 2 0 1 1 2 3 2 3 0 4-2 5-7 1-4 3-7 5-8 3-1 4-2 4-3 0-3 0-3-6 3z m46 0c-1 2-2 5-2 7 1 1 2-2 4-5 4-8 2-10-2-2z m-79 94c0 65 0 97 2 97 3 0 32-12 31-13-1 0-7 2-15 6-8 3-15 5-15 5-1 0-1-43-1-95 0-53-1-96-1-97-1 0-1 43-1 97z m431 33c0 32-1 59-2 59 0 0-15-8-32-16-18-9-34-16-36-16-2 0-2 0 0 1 1 1 18 8 36 17 18 9 34 16 34 15 1 0 1-27 1-59l-1-59z m-322 29c3 1 28 13 57 27 29 15 52 26 52 25 0-1-107-54-111-54-2 0-1 1 2 2z m-38 5c-3 1-4 2-3 2 1 0 4-1 7-2 3-2 4-3 3-3-1 0-4 1-7 3z m254 0c-3 1-4 2-3 2 1 0 4-1 7-2 3-2 4-3 3-3-1 0-4 1-7 3z m-14 6c-3 1-4 2-3 2 1 0 4-1 7-2 3-2 4-3 3-3-1 0-4 1-7 3z m-265 5c-6 3-11 5-10 5 3 0 27-11 24-11-1 0-7 2-14 6z m249 2c-3 2-6 3-5 3 2 0 6-1 9-3 4-3 7-4 5-4-1 0-5 1-9 4z m-15 7c-3 1-4 2-3 2 1 0 4-1 6-2 3-2 5-3 3-3-1 0-4 1-6 3z m-14 5c0 2 2 2 6 0 2-2 2-2-2-2-2 0-4 0-4 2z m-10 4c-3 2-4 3-3 3 1 0 4-1 7-3 2-1 4-2 3-2-1 0-5 1-7 2z m-100 32c53 27 60 30 64 27 5-2 5-2 0-1-4 1-19-5-63-28-32-15-59-29-59-28-1 0 25 13 58 30z m252-1c33 17 60 30 62 30 1 0 2-6 2-26l-1-27 0 26c-1 14-2 25-2 25-1 0-27-13-59-29-31-16-58-29-58-28-1 0 24 13 56 29z m-323-24c-4 3-6 4-5 4 1 0 5-1 9-4 4-2 6-3 5-3-1 0-5 1-9 3z m157-1c-3 2-4 3-3 3 1 0 4-1 7-3 3-1 4-2 3-2-1 0-4 1-7 2z m97 1c-4 3-6 4-5 4 1 0 5-1 9-4 4-2 6-3 5-3-1 0-5 1-9 3z m-379 28c0 27 1 29 8 24 2-2 2-2-1-1-5 1-5 1-6-24l0-26z m266-22c-4 3-6 4-5 4 1 0 5-1 9-4 4-2 6-3 5-3-1 0-5 1-9 3z m-164 4c-6 3-11 6-10 6 3 0 27-11 24-11-1 0-7 2-14 5z m261-3c-3 2-4 3-3 3 1 0 4-1 7-3 3-1 4-2 3-2-1 0-4 1-7 2z m-14 6c-3 2-4 3-3 3 1 0 4-1 7-3 3-1 4-2 3-2-1 0-4 1-7 2z m-278 10c-2 2-4 3-3 3 2 0 5-1 7-3 3-1 5-3 3-3-1 0-4 2-7 3z m254 0c-2 2-4 3-3 3 2 0 5-1 7-3 3-1 5-3 3-3-1 0-4 2-7 3z m-15 7c-4 2-6 4-5 4 1 0 5-2 9-4 3-2 6-4 5-4-1 0-6 2-9 4z m-256 1c-3 2-4 3-3 3 1 0 4-1 7-3 2-1 4-3 3-3-1 0-5 2-7 3z m-14 6c-3 2-4 3-3 3 1 0 4-1 7-3 2-1 4-3 3-3-1 0-5 2-7 3z m254 0c-3 2-4 3-3 3 1 0 4-1 7-3 2-1 4-3 3-3-1 0-5 2-7 3z m-273 8c-6 3-9 5-8 5 1 0 6-2 12-5 5-2 9-4 8-5-1 0-7 3-12 5z m259-2c-3 2-4 3-3 3 1 0 4-1 7-3 3-1 4-3 3-3-1 0-4 2-7 3z m-212-466c-35 15-66 28-66 27-1 0-2 16-2 37 0 27 1 38 3 38 1 0 1 1 0 2-1 0-2 9-3 20 0 16 0 18 4 17 3-1 3-1 0 1-3 2-3 7-4 27 0 17 1 26 3 28 1 2 1 3 0 1-2 0-3 0-3 2 0 1 1 3 3 4 2 1 3 2 3 4 0 2-1 2-1 0-5-11-5 6-5 131 1 74 2 134 2 135 1 1 32-12 69-28l68-29 58 29c41 21 59 29 62 28 2 0 34-13 69-29l65-28 58 29c31 16 58 29 59 28 0-1 1-102 2-225 0-123 0-223-1-222-1 1-27-12-59-27-31-16-58-29-60-29-1 0-32 13-69 29l-67 29-58-29c-31-16-59-29-60-29-2 0-33 13-70 29z m188 65c9 0 16-2 35-10 13-6 26-12 29-14l5-2 6 13c4 7 6 13 6 14 0 0 3 7 6 14l6 14-6 10c-4 5-7 10-8 10 0 0-7-9-15-21-15-20-15-20-20-17l-4 3 8 11 8 13-4 10c-3 5-6 14-8 18-1 5-3 9-4 9-1 0-6-7-11-15l-9-14 4-8c4-7 4-7 1-10-2-2-5-3-5-3-1 0-4 5-8 12-5 10-10 14-10 8 0-2-14-34-15-35 0-1-3 0-5 0l-6 2 5 9c8 20 15 37 18 45 2 5 4 9 5 9 1 0 3-4 5-8 2-5 4-8 5-8 1 0 4 4 7 9 3 5 9 15 13 22l7 11 4-7c11-28 18-43 19-43 2 0 5 4 9 10 4 5 7 9 8 9 2-1 6 7 17 36 2 6 4 10 5 10 1 0 3-3 5-8 2-4 5-8 5-8 1 0 4 5 7 10 3 5 9 15 13 21l8 12 3-8c11-28 18-42 20-42 1 0 5 4 8 10 6 8 11 11 11 5 0-1 2-5 4-9 10-16 26-43 25-43 0 0-3-2-5-3-4-2-6-1-9 6-1 1-4 7-7 13-4 5-8 12-9 14-1 3-3 5-3 5-1 0-8-10-16-21l-15-21-5 4c-5 3-5 3-3-1 5-16 16-39 18-39 1 0 4 4 7 9 8 12 9 12 12 6 3-6 21-37 25-44 3-4 3-4 9-1l5 3 0 116c0 64 0 115-1 114 0-1-4-2-8-2-7 0-23-7-26-11-2-4-17-9-29-9-15 0-26-5-36-17-4-4-14-15-21-23-15-17-32-30-47-36-6-2-17-7-24-10-7-3-15-6-19-6-4 0-9-1-11-2-2-1-13-3-24-3-19-2-20-2-27-9-5-4-8-7-7-8 0-1-2-3-5-5-4-3-8-4-16-4-6 0-13-2-18-4-4-2-8-3-9-3-1 1-1 1 0-1 1-2-5-17-9-20-2 0-12-1-23-1l-20 0-7-15c-14-27-29-43-39-40-6 1 5-4 48-22l44-19 53 27c50 25 55 27 65 27z m192-20c-2 3-5 8-7 12-10 16-11 19-12 19-1 0-8-9-16-20-15-21-15-21-19-18l-5 3 8 12 8 12-4 10c-3 6-6 14-7 18-2 5-4 9-5 9-1 0-6-7-11-14l-9-15 5-7c4-8 4-8 0-11-2-1-4-2-5-3 0 0-4 6-7 12-6 11-11 14-11 8 0-1-3-10-7-19-7-16-8-17-12-16-7 1-9 2 31-14l29-12 29 15 30 15z m-401 24c3-1 3-1 0 2-4 4-10 3-8-2 1-2 2-2 3-1 0 1 3 2 5 1z m11 17c4 6 5 10 1 10-1 0-4 2-7 4-3 4-5 4-8 2-4-2-4-5-4-13 0-9 0-9 3-6 2 4 2 4 3 0 0-1 1-5 2-7 2-3 2-3 5 1 1 3 4 7 5 9z m319 21c11 17 13 20 15 18 1-2 3-3 3-3 1 0 5 5 9 11l7 11-4 10c-3 6-6 14-8 19-1 5-3 8-4 8-1 0-6-6-11-14l-9-14 5-8c4-7 4-7 0-10-2-2-4-3-5-3-1 0-4 5-7 12-6 10-11 14-11 7 0-1-2-8-5-15-5-10-6-12-9-10-2 3 7-14 11-20 1-1 1-2-1-2-1 0 0-2 2-4 2-3 4-6 4-7 0-2 1-3 2-2 1 1 2 0 1-2-1-2 0-3 1-3 1 0 7 9 14 21z m-308 1c3 4 7 10 10 12l5 5-8 2c-4 0-11 4-14 7-7 4-8 5-11 2-2-1-6-2-8-2-3 0-3-2-3-15 0-11 0-15 2-15 1 1 3 3 4 6 1 5 4 5 5 0 1-4 11-12 13-11 1 1 3 5 5 9z m46 19c-2 2-5 2-6 2-1-1-1 0-1 1 2 5-1 5-10 1l-9-5 14-1c7 0 14-1 15-1 1 0 0 1-3 3z m11 3c-2 3 5 11 13 17 4 3 5 5 4 4-2-1-5 0-6 1-2 1-4 0-5-1-2-1-3-1-3 1 0 1-1 2-2 1-2 0-4 1-6 2-9 8-10 9-14 6-2-1-3-2-3-3 1-2-1-2-5-1-4 1-7 0-8-2-1-2-2-2-4 1-1 2-2 2-6 0-2-2-3-2-3-1 1 2 0 3-1 3-2 0-6 2-10 4-8 6-10 7-9 4 1-1 0-2-2-2-2 0-6-1-10-2l-6-1 0-13c0-7 0-12 1-12 4 0 11 6 10 9-1 2 0 2 1 2 1-1 2-1 2 0 0 5 3 2 4-3 2-7 8-11 22-12 13-1 21 2 24 10l2 5 2-7c2-3 5-7 7-8 5-3 7-3 5 0-1 1 0 1 1-1 3-3 7-5 5-1z m39 26c-3 3-4 3-11 0l-7-4 11 0c10 1 10 1 7 4z m-25 2c1 1 3 1 6 1 2-1 5-1 6 0 0 1 2 1 3 1 2 0 3 2 4 5 1 6 5 7 5 1 1-3 3-6 6-8 4-2 5-2 13 7l9 9-8 2c-5 1-12 4-15 7-7 5-8 5-11 3-2-2-6-3-8-3-2 0-3-1-3-2 0-2-23 0-24 3 0 0-1 1-3 1-1 0-4 2-6 4l-4 4-9-5c-6-2-10-4-10-3 0 1-5 1-11 1-8-1-11 0-9 1 3 2 3 2 1 2-2 0-5 2-8 4l-4 5-9-4c-4-3-9-4-10-4-1 1-1-4-1-11 0-11 0-13 3-13 3 0 5 1 5 3 1 1 3 2 5 1 2-1 3 1 6 6 2 5 2 5 3 2 0-6 6-13 13-14 11-2 24-2 24 0 0 1 1 1 3 0 3-1 8 6 6 10 0 2 0 3 2 2 2 0 4-4 4-7 1-5 2-6 6-5 1 0 2-1 3-2 1-1 11-6 14-6 1 0 2 1 3 2z m77 24c-3 3-5 3-12-2-1-1 1-2 6-2 8 0 8 1 6 4z m11-1c-1 1 1 2 4 2 14 0 30 4 39 8 9 5 14 10 9 10-2 0-5 2-7 4-4 4-5 4-11 1-4-2-7-4-8-5-1-1-10-1-11 1-1 1-3 0-4-1-2-2-3-2-3 0 0 1-1 2-2 2-1-1-4 0-6 2-9 8-10 8-14 6-2-1-3-3-3-4 1-1-1-1-5 0-4 0-7 0-8-2-1-2-2-2-4 0-1 3-2 3-6 1-2-2-3-2-2-1 0 1 0 2-2 2-2 0-6 2-10 5-8 5-10 6-8 3 0 0-1-1-3-1-7-1-15-4-17-6-1-1-2-1-3 1 0 1-2 2-3 2-2 0-3-1-2-2 1-1 0-1-3 0-3 2-5 3-6 3-1 0-3 1-6 3-3 2-6 3-6 3-1 0-2 1-3 2-1 1-1 1 1 0 2-1 2-1 1 1-1 2-2 1-6-2-3-3-5-4-5-3 0 1-1 1-2 0-2-1-4-2-7-1-2 0-3-1-2-2 1-1 0-2-1-2-1 0-2 1-2 2 0 1-1 2-4 1-2 0-4 0-4 1 0 2-1 2-3 1-1 0-3 0-3 1 0 1-1 2-2 2-1 0-4 2-7 4-4 4-4 4-11 1-3-2-7-4-7-5-1-1-3-1-6-1-4 0-4 0-4-12l0-13 7 3c4 2 8 4 8 5 0 1 2 3 4 5 2 4 2 4 3 0 0-5 4-10 11-13 7-3 18-4 18-2 0 1 2 1 4 1 5-2 13 5 12 9-1 3 0 4 2 3 2 0 4-1 5-1 0 0 1-1 0-3-1-3 4-11 8-11 2 0 5-1 7-2 3-2 4-2 6 0 1 2 2 2 2 1 0-2 2-3 8-2 9 1 14 5 13 9-1 1 0 2 1 1 1 0 2 0 2 1 0 5 3 2 4-3 2-8 8-11 22-12 13-1 21 2 24 9l2 5 2-6c2-4 4-7 7-8 4-3 7-3 6-1z m74 23c14 7 39 31 51 48 3 5 12 12 18 16 11 8 14 9 25 9 14 0 24 2 29 8 6 6 21 11 34 12l13 0 0 58c0 38 0 59-2 59-1 0-16-8-34-17-45-22-38-23-116 11l-63 27-54-27c-68-34-60-34-117-9-23 10-43 18-44 18-2 0-2-26-2-97 0-86 0-97 3-95 1 1 4 2 6 1 2-1 4 0 6 1 2 2 4 3 4 2 1 0 2 2 3 4 1 5 4 5 5 0 1-5 10-11 15-10 2 0 4-1 4-2 1-1 3-2 5-2 3 0 4 1 3 2-1 2 0 2 2 0 6-2 13 1 17 8 3 6 4 6 4 3 0-5 5-11 8-11 1 0 2-1 2-2 0-1 2-2 4-1 2 1 4 0 4-1 0-3 19-2 21 1 0 2 2 2 4 2 2-1 4 1 6 5 2 5 2 6 3 3 0-6 6-13 13-14 11-2 24-3 24-1 0 1 2 1 3 1 4-1 8 6 7 10-1 2 0 2 1 2 2-1 4-4 4-7 1-5 2-6 6-6 1 0 2 0 3-1 3-4 15-7 17-5 2 2 4 2 6 1 2 0 4 0 6 1 1 0 3 1 4 1 1 0 2 2 3 5 1 6 5 6 5 1 1-6 10-12 16-12 3 1 5 0 5-1 0-3 4-2 10 1z m-29 97c-6 6-7 8-7 16 0 11 7 20 16 23 5 1 8 4 11 9 4 9 18 17 27 17 3 0 6 2 8 5 7 10 27 16 40 11 8-3 19-14 21-22 2-5 5-10 8-12 7-5 12-14 12-20 0-2 1-3 2-3 1 1 2 0 2-2 0-2-1-2-2-2-1 1-2-1-2-3 0-7-8-17-15-20-6-3-15-4-61-4l-54 0z m120 9c8 8 8 18 0 26-3 3-7 6-9 6-2 0-3 2-3 6 0 14-15 27-29 25-8-2-21-12-21-18 0-2-2-2-9-1-8 0-11 0-15-5-5-3-6-6-6-12l0-9-8 2c-7 0-10 0-13-4-5-5-5-13 0-18 4-3 7-4 56-4l51 0z"/>
<glyph glyph-name="cumulative" unicode="&#85;" d="M24 15c-1 4-1 16 0 28 1 25 6 29 29 23 10-3 11-4 10-29l-2-26-17-1c-11-1-18 0-20 5z m46 0c-2 4-2 21-1 40 1 36 4 40 29 34 11-3 11-4 10-41l-2-37-17-1c-11-1-17 0-19 5z m46 0c-2 3-2 26-2 51 2 49 3 52 29 45 12-3 12-3 10-51l-1-49-17-1c-12-1-18 0-19 5z m44 0c-1 3-1 31-1 62l2 57 32 0 1-63 1-62-16 0c-9 0-17 3-19 6z m56 65c-2 2-3 28-3 59l0 56-195 0 0 136c0 128 1 136 8 135 8-2 8-12 9-128l1-125 89 0c85 0 88 0 88 9 0 9-4 9-87 10l-87 1 87 2 87 1 0 40-40 0c-39 0-41 0-49-11l-9-12-23 12c-13 6-30 12-39 12-12 1-13 1-3 3 6 1 13 4 14 6 2 4 6 3 12 0 5-3 17-5 27-5 15 0 18 2 29 20l13 21-32 0c-26 0-32-2-36-9-6-12-14-12-17-1-1 5-7 10-12 11-8 1-7 2 3 3 9 0 14 4 21 18 5 10 10 19 10 20 0 2-10 3-22 4l-21 2 24 1c20 1 24 2 29 12 6 14 15 14 22 0 4-8 9-11 17-11 10 0 14 4 22 20l10 20-61 0c-38 0-61 2-61 5 0 3 24 4 62 4 44 0 65 2 68 6 5 4 8 4 15 0 5-3 26-6 54-6 27 0 45-1 45-4 0-3-10-5-23-5l-22 0 14-20c8-11 15-21 15-21 1-1 53-2 116-4l116-2 0-213-26-2-26-1-2 67c-1 57-1 52-2-30-1-69-3-100-6-104-6-5-217-8-223-2z m38 29c0 12-2 13-14 13-12 0-13-1-13-13 0-12 1-14 13-14 12 0 14 2 14 14z m45 0c0 12-1 13-18 13-17 0-18-1-18-13 0-13 1-14 18-14 17 0 18 1 18 14z m45 0c0 12-1 13-16 13-14 0-15-1-15-13 0-13 1-14 15-14 15 0 16 1 16 14z m41 0c0 12-1 13-16 13-14 0-16-1-16-13 0-13 2-14 16-14 15 0 16 1 16 14z m45 0c0 12 0 13-18 13-17 0-18-1-18-13 0-13 1-14 18-14 18 0 18 1 18 14z m-176 38c0 15-1 16-14 16-13 0-13-1-13-16 0-14 0-16 13-16 13 0 14 2 14 16z m45 0c0 16 0 16-18 16-18 0-18 0-18-16 0-15 0-16 18-16 18 0 18 1 18 16z m45 0c0 15-1 16-16 16-14 0-15-1-15-16 0-15 1-16 15-16 15 0 16 1 16 16z m41 0c0 15-1 16-16 16-15 0-16-1-16-16 0-15 1-16 16-16 15 0 16 1 16 16z m45 0c0 16 0 16-18 16-17 0-18 0-18-16 0-15 1-16 18-16 18 0 18 1 18 16z m59 32c0 10-1 11-16 11-14 0-15-1-15-11 0-10 1-11 15-11 15 0 16 1 16 11z m-235 7c0 7-3 9-14 9-10 0-13-2-13-9 0-7 3-9 13-9 11 0 14 2 14 9z m45 0c0 7-3 9-18 9-15 0-18-2-18-9 0-8 3-9 18-9 15 0 18 1 18 9z m45 4c0 13-1 14-16 14-14 0-15-1-15-14 0-12 1-13 15-13 15 0 16 1 16 13z m41 0c0 13-1 14-16 14-14 0-16-1-16-14 0-12 2-13 16-13 15 0 16 1 16 13z m45 0c0 13 0 14-18 14-17 0-18-1-18-14 0-12 1-13 18-13 18 0 18 1 18 13z m59 30c0 15-1 16-16 16-14 0-15-1-15-16 0-15 1-16 15-16 15 0 16 1 16 16z m-235 4c0 5-5 7-14 7-9 0-13-2-13-7 0-4 4-7 13-7 9 0 14 3 14 7z m45 5c0 10-2 11-19 11-18-1-19-1-6-4l14-4-13 0c-8-1-12-4-12-8 0-5 5-7 18-7 16 0 18 1 18 12z m45 0c0 10-1 11-16 11-14 0-15-1-15-11 0-10 1-12 15-12 15 0 16 2 16 12z m41 0c0 10-2 11-16 11-14 0-16-1-16-11 0-10 2-12 16-12 14 0 16 2 16 12z m45 0c0 10-1 11-18 11-16 0-18-1-18-11 0-11 2-12 18-12 17 0 18 1 18 12z m-182 10c-4 1-11 1-16 0-4-2 0-2 8-2 9 0 12 0 8 2z m241 22c0 14-1 15-16 15-14 0-15-1-15-15 0-15 1-16 15-16 15 0 16 1 16 16z m-274 27c2 6 19 7 113 7 79 0 111-2 115-6 4-4 6-2 6 9 0 14-1 15-16 15-11 0-16-3-16-7 0-4-2-7-5-7-2 0-4 3-4 7 0 5-5 7-18 7-13 0-18-2-18-7 0-4-2-7-5-7-2 0-5 3-5 7 0 5-5 7-18 7-13 0-18-2-18-7 0-4-2-7-4-7-3 0-5 3-5 7 0 4-5 7-16 7-11 0-16-3-16-7 0-4-3-7-6-7-4 0-7 4-7 11 0 7-2 12-5 12-2 0-4-3-4-7 0-9-5-9-17-1-8 7-11 6-30-11-13-9-23-18-24-18-2 0-10 7-19 14l-16 15-11-13c-6-7-10-15-10-17 0-2 17-3 38-3 29 0 39 1 41 7z m274 11c0 13-1 14-16 14-14 0-15-1-15-14 0-13 1-14 15-14 15 0 16 1 16 14z m-285 11l10 12-49 0 14-12c8-6 14-11 14-11 0 0 5 5 11 11z m-91 35l-10 19-8-16c-12-21-11-22 9-22l18 0z m116-14c4 3 8 3 15 0 5-3 13-5 18-5 8 0 10 3 10 15 0 8 2 17 4 20 7 6-49 7-63 0-8-4-11-4-12 0-2 4-10 6-22 6-18 0-19-1-28-19l-10-20 41-1c25-1 43 1 47 4z m-91 29c2 5-1 7-7 7-5 0-8-2-6-7 2-3 5-7 6-7 2 0 5 4 7 7z m50 26c-4 8-8 15-9 16 0 1-4-6-8-15l-8-15 32 0z m54-8c-2 4-5 7-6 7-2 0-6-3-9-7-5-6-4-6 5-6 9 0 12 1 10 6z m-21 21l11 13-38 0 8-13c4-8 7-14 8-14 1 0 6 6 11 14z m-202-301c-3 1-5 7-5 13 0 10 3 12 24 18 33 10 76 37 65 41-18 7-7 14 24 18 18 1 33 2 34 1 1-1-3-15-9-32-10-28-11-29-20-23-8 6-11 5-35-9-15-9-34-19-44-21-10-3-20-6-23-7-3 0-8 0-11 1z"/>
<glyph glyph-name="cumulus" unicode="&#86;" d="M446 340c-3 5 2 13 6 10 5-3 5-14 0-14-2 0-5 2-6 4z m-336-257c-3 6 3 21 9 21 4 0 5-4 4-11-1-11-9-17-13-10z m57 0c3 1 5 3 5 5 0 3-2 3-4 2-2-1-4 1-4 6 0 4 3 8 6 8 4 0 6-4 6-12 0-9-2-12-7-12-4 0-5 2-2 3z m-55 51c0 4 4 6 8 6 10 0 9-9-1-11-4-1-7 1-7 5z m198 46c-6 3-6 4 5 4 13 0 17-2 8-5-3-1-9-1-13 1z m134 158c-4 5-4 7 0 12 6 7 16 8 16 2 0-3-3-4-6-3-9 4-12-5-4-12 4-3 6-5 3-5-2 0-6 3-9 6z m-334 84c-4 8 1 19 6 16 5-3 5-22 0-22-2 0-5 3-6 6z m58 6c0 2 3 4 6 4 3 0 6-2 6-4 0-2-3-4-6-4-3 0-6 2-6 4z m-132-172l0 224 448 0 0-448-448 0z m424-90c1 110 1 110-8 110-4 0-8 2-8 4 0 2-6 4-12 4-20 0-29 14-20 32 5 10 23 10 25 1 2-7 2-7 3 0 0 7-2 9-21 13-11 2-19 17-13 22 2 1 6 6 9 11 4 7 4 9-1 9-8 0-11 12-5 25 4 9 7 11 18 10 7 0 13 1 13 2 0 10-1 13-3 8-4-11-33 0-33 12 0 8 16 19 26 19 19-2 30 0 30 4 0 3-69 4-200 4l-200 0 0-149c0-110 2-147 5-140 3 6 8 9 16 9 6 0 11-2 11-4 0-2 3-4 6-4 3 0 6 2 6 4 0 8 20 4 30-6 13-12 14-37 2-47-5-4-7-9-5-13 2-6 3-6 9 1 10 13 44 11 44-2 0-5 2-5 8 3 13 13 22 9 23-10 2-20-2-34-9-34-3 0-6 2-6 4 0 2-6 4-14 4-8 0-14-2-14-4 0-2-5-4-12-4-6 0-13 2-14 4-4 6-25 5-28-1-2-4-2-4-4 0-3 6-30 7-30 1 0-2-3-4-6-4-3 0-6 2-6 4 0 2-3 4-6 4-3 0-6-4-6-8 0-8 3-8 199-8l199 0z m-337-73c1 7 0 11-4 11-6 0-12-15-9-21 4-7 12-1 13 10z m53-1c0 8-2 12-6 12-4 0-6-4-6-12 0-8 2-12 6-12 4 0 6 4 6 12z m-70 17c2 1-1 3-7 3-9 0-11-1-6-6 3-3 6-4 7-3 1 2 4 4 6 6z m21 26c1 3-2 5-7 5-4 0-8-2-8-6 0-8 12-6 15 1z m329 203c0 3 1 8 2 12 4 8-7 8-14 0-4-5-4-7 0-12 6-8 12-8 12 0z m-298-166c-1 1-8 4-15 6-16 3-47 34-47 48 0 6-2 10-4 10-6 0-5 65 2 78 3 7 6 15 6 18 0 3 6 10 13 16 7 6 14 12 17 14 2 2 14 8 25 11 19 7 23 7 39 1 10-3 20-6 22-6 7 0 36-31 36-38 0-3 2-6 4-6 2 0 4-2 4-4 0-9-12-16-32-20-22-4-30-1-33 14-1 5-5 8-13 9-31 4-40-10-37-59 2-37 5-41 29-39 15 1 16 2 26 23 5 10 42 7 53-4 7-8 7-10 2-19-13-25-21-37-26-37-3 0-5-2-3-4 1-2-5-4-14-6-9-2-17-4-18-6-3-5-33-5-36 0z m138 2c-18 10-24 16-24 23 0 4-2 7-4 7-3 0-4 20-3 57l1 57 27 1 27 1 0-96 11 0c11 0 11 1 10 14-1 11-1 14 3 12 2-2 4 1 4 6 0 5-2 7-4 6-6-4-5 43 2 51 4 5 11 7 32 7l26 0 0-144-35 0c-23 1-35 0-36-4-2-6-25-4-37 2z m32 8c0 1-6 2-13 2-11 0-11-1-5-4 7-3 18-1 18 2z m-242 222c1 2-2 4-6 5-6 2-8 6-8 19 0 14 1 16 11 19 16 4 41 3 47-3 4-3 6-3 7 0 1 4 77 7 81 3 2-1 4-9 5-17 1-11 1-14-5-14-3 0-6-2-6-4 0-2-7-4-16-4-10 0-16-2-14-4 1-2 0-4-2-4-2 0-4 2-4 4 0 2-6 4-12 4-7 0-12-2-10-4 1-2 0-4-4-4-3 0-6 2-6 4 0 2-6 4-14 4-9 0-14-2-12-4 1-2 0-4-4-4-3 0-6 2-6 4 0 2-3 4-6 4-3 0-6-2-6-4 0-2-3-4-6-4-4 0-6 2-4 4z m34 22c0 5-2 11-4 12-5 3-10-8-6-16 3-10 10-7 10 4z m60 2c0 2-3 4-6 4-3 0-6-2-6-4 0-2 3-4 6-4 3 0 6 2 6 4z"/>
<glyph glyph-name="cyclone" unicode="&#87;" d="M118 103c-34 6-65 22-90 45-18 17-28 30-28 38 0 3 2 2 10-4 37-29 96-37 148-20l9 2-6 7c-21 22-33 54-33 86 0 38 15 72 44 97 18 16 68 41 101 50 23 6 29 7 73 7 47 0 47 0 72-9 27-9 48-22 68-39 14-14 26-29 26-36 0-4-2-3-12 4-34 26-82 36-128 26-28-6-28-6-21-14 21-21 33-53 33-84 0-38-12-65-38-93-27-26-83-53-134-62-22-4-75-5-94-1z m170 90c53 26 53 102 0 129-18 10-46 10-64 0-25-13-40-37-40-65 0-54 55-88 104-64z"/>
<glyph glyph-name="da" unicode="&#88;" d="M11 95l0 95 21 1c26 1 58-3 94-10 16-4 33-7 38-8 11-3 78-26 105-38 73-31 147-73 190-107 12-9 22-21 22-26 0-1-106-2-235-2l-236 0z m272 88c-4 4-2 31 7 78 14 79 19 92 39 113 17 18 31 25 55 26 16 1 21 0 29-3 15-7 24-15 31-29 11-22 7-64-9-88-9-13-26-29-37-35-19-9-44-8-58 2l-8 5-6-34-5-35-19-1c-10 0-18 0-19 1z m102 98c23 18 29 73 8 81-9 3-23 1-29-5-16-15-27-58-19-72 6-13 26-14 40-4z m-269-92c-7 4-38 29-42 35-6 6-6 14 2 22 8 8 13 8 21 2 4-2 7-5 7-5 1 0 2 32 2 70l0 70-7-5c-9-6-17-6-24 1-6 5-7 11-4 18 3 7 46 40 52 40 6 0 28-16 46-33 9-8 10-17 2-25-6-6-18-8-22-2-2 1-4 3-5 3-1 0-2-31-2-69 0-65 0-68 4-65 8 7 15 7 23 1 7-6 9-12 6-20-2-5-43-38-49-39-3-1-7 0-10 1z m-40 263c-13 5-17 20-8 29 6 6 6 6 54 6 46 0 50 0 55-5 8-6 8-17 0-25-5-5-6-5-51-6-26 0-48 0-50 1z"/>
<glyph glyph-name="datacheck" unicode="&#89;" d="M129 20c-51 7-92 22-117 42l-12 11 0 117 8-13c16-26 98-53 164-53l29 0-13 15c-14 15-15 16-46 18-56 5-112 24-132 46-10 10-10 13-10 67l0 56 10-13c14-17 42-31 85-42 51-12 151-12 202 0 43 11 71 25 85 42l10 13 0-71 18 17c15 12 22 16 34 16 12 0 18-4 41-27 24-24 27-29 27-43 0-14-4-19-62-80-34-35-67-70-74-76-6-7-19-18-28-25-15-11-20-13-40-12-12 0-37-2-56-4-38-5-85-6-123-1z m328 217l-17 17-126-126-38 38-38 38-34-34 55-55 55-55 160 160z m-347 61c-51 9-82 22-100 41-10 10-10 13-10 56l0 44 12 11c19 16 38 24 78 34 31 8 46 10 106 10 51 0 77-2 96-7 43-11 71-23 86-37l14-13 0-88-16-14c-31-28-96-43-184-43-30 0-67 3-82 6z"/>
<glyph glyph-name="davispro2" unicode="&#90;" d="M256 103l0 67-8-2c-4-1-8-2-10-2-1 0-2-20-2-43l0-43-157 0 0 29c0 30-2 33-19 33-3 0-14 3-22 7-16 8-16 4-6 54 3 14 7 36 9 49 1 13 5 26 7 28 5 6 19 5 32 0 6-3 6-1 4 35-3 37-3 38 4 38 4 0 8-2 9-6 1-3 1 1 2 10 0 27 2 27 72 27 73 0 66 6 70-59 1-24 4-44 5-45 2-1 10 0 18 4 12 4 17 10 24 23 22 39 52 63 80 63 12 1 28 10 28 17 0 2-15 4-40 5l-40 1-18 32c-10 18-18 36-18 40 0 7 2 8 16 8 9 0 19 1 23 2 6 1 16-5 41-27 34-28 34-28 54-29 12 0 32-2 46-3l25-2 0-23-19 0c-16 0-19-1-19-7 0-4-1-7-3-7-2 0-4-10-4-23 0-17 1-22 4-18 6 5 24 5 33-2 6-4 8-8 8-21 0-9-2-18-4-20-6-6-35-6-40 0-3 3-4 2-4-4 0-6-2-7-11-7-13 0-23 5-23 12 0 4-1 4-8 0-10-8-31-7-38 1-6 7-7 34-1 41 2 2 11 4 19 4 9 0 14 1 12 3-6 10-38-2-54-21-19-23-24-36-26-76-2-29-4-41-9-52-8-13-8-19-8-86l0-72-34 0z m-193 65c4 15 16 84 14 87-1 3-2-2-3-9-5-31-5-30-16-29-9 2-9 1-13-17-5-27-5-31 4-34 11-5 12-5 14 2z"/>
<glyph glyph-name="daylength" unicode="&#49;" d="M23 45l0 10 51 0 1 6c4 17 22 37 41 42 30 10 66-8 75-38l4-10 51 0 0-20-223 0z m147 18c-10 20-31 28-51 20-9-4-16-10-21-20l-4-8 80 0z m96-18l0 10 50 0 4 10c10 27 42 46 68 39 14-3 20-7 30-15 8-8 18-24 18-31 0-2 4-3 26-3l25 0 0-20-221 0z m150 11c0 7-14 22-23 26-9 3-26 2-34-1-7-4-18-15-20-22-1-4 1-4 38-4 21 0 39 1 39 1z m-121 24c-16 10-17 11-16 17 3 11 9 11 25 1 18-10 21-16 13-23-6-5-7-4-22 5z m141-4c-2 2-4 5-4 7 0 3 7 10 21 17 11 7 12 7 17 3 4-2 5-4 5-8-1-5-4-8-15-15-8-4-16-8-17-8-1 0-5 2-7 4z m-384 5c-16 9-19 13-14 21 4 6 7 6 21-2 15-8 19-12 19-17 0-11-9-12-26-2z m141-5c-2 2-3 5-3 8 0 5 3 7 15 14 12 7 16 8 20 7 4-1 5-3 5-9 0-6-1-7-13-14-14-8-20-10-24-6z m-101 27c-5 2-18 25-18 31 0 2 1 5 2 7 4 3 11 3 14-1 6-6 16-26 16-29 0-7-9-11-14-8z m76 0c-3 1-5 5-6 7 0 4 12 27 17 31 5 4 12 2 14-4 2-4 1-8-5-19-9-16-13-18-20-15z m159 8c-13 21-14 26-5 31 6 3 12-2 20-16 9-16 8-26-3-26-4 0-7 3-12 11z m82-8c-5 3-4 10 4 24 8 15 13 18 20 13 7-4 7-7-1-21-11-19-14-22-23-16z m-282 12c-6 6-6 33 0 39 5 4 7 5 12 2 4-2 4-5 4-22 0-19 0-20-5-21-7-3-6-3-11 2z m243-1c-4 5-5 31-1 38 2 4 12 5 16 1 4-4 3-35-1-39-5-4-10-4-14 0z m-245 59c-3 4-4 7-5 22l-2 18-8 0c-14 1-14 6-1 21 13 16 22 24 26 24 3 0 15-12 28-28 9-11 8-16-5-17l-8 0-1-18c-2-19-5-25-15-25-3 0-6 2-9 3z m235 11c-22 25-23 31-7 31l9 0 1 19c1 21 2 22 15 22 11 0 12-2 14-25l2-16 9 0c8 0 9 0 9-5 0-7-29-40-35-40-2 0-10 7-17 14z m-123 70c-58 10-98 63-93 120 4 44 34 81 77 96 46 16 99-3 126-44 17-25 23-52 18-81-5-29-25-59-50-75-21-13-54-20-78-16z m48 21c44 14 70 58 63 103-8 54-60 90-113 78-25-5-52-26-64-48-27-55 3-122 60-135 21-5 35-5 54 2z m-39 13c1 8 1 8 10 9l8 0 0-16-18 0z m-34 4c-3 1-5 3-5 4 0 2 3 8 7 13 1 1 13-7 13-9 0-3-6-11-9-11-1 0-4 1-6 3z m74 2c-2 3-3 6-3 6 0 2 12 10 13 9 4-5 7-11 7-13 0-2-9-7-12-7-1 0-3 2-5 5z m-104 27c-1 3-3 6-3 7-1 2 10 8 13 8 2 0 10-12 8-13-1-1-13-8-14-8-1 0-2 3-4 6z m134-2c-3 2-6 3-6 4-2 1 6 13 8 13 3 0 14-6 13-8-7-15-6-14-15-9z m-146 45c1 8 1 8 10 8l8 1 0-17-18 0z m84 42l0 43 5-1c10 0 32-7 42-14 13-9 23-20 30-34 4-9 5-12 8-30l1-8-86 0z m-69-11c-3 1-6 3-6 3-1 1 6 14 8 14 3 0 14-7 13-8-7-15-6-14-15-9z m25 30c-4 7-4 8 3 11 3 2 6 3 7 4 1 1 7-10 7-14 0-1-8-6-12-6-1 0-3 2-5 5z"/>
<glyph glyph-name="daynight" unicode="&#50;" d="M131 26c-27 8-56 25-73 43-33 33-50 75-50 123 0 24 1 26 10 55 9 27 22 48 47 71 25 24 63 40 77 32 6-3 12-12 12-20 0-3-2-11-4-19-10-32-4-70 17-101 7-10 28-32 32-32 1 0 3-1 4-2 9-9 34-17 56-20 14-1 21 0 49 6 23 5 32-1 32-21 0-10-1-15-9-30-16-32-46-61-80-76-24-12-32-13-70-14-31 0-36 0-50 5z m199 144c-5 3-5 5-6 27-1 21 0 24 4 29 5 7 14 7 20 1 4-4 4-7 4-28 0-22 0-23-5-28-6-6-11-7-17-1z m-77 21c-3 3-5 7-5 9 0 2 5 12 11 24 8 14 14 21 17 22 7 3 14 0 17-8 3-5 2-7-6-23-15-28-24-34-34-24z m154-3c-1 1-8 12-15 23-13 23-13 28-2 35 5 2 6 2 11 0 5-4 27-40 27-46 0-5-9-14-14-14-2 0-5 1-7 2z m-209 59c-7 6-7 13-1 19 8 7 38 23 43 23 10 0 16-14 10-22-4-4-36-23-42-25-4 0-6 1-10 5z m124-3c-17 3-33 11-47 25-27 28-34 66-18 101 7 15 15 25 28 35 56 41 137 4 142-66 2-26-6-49-24-68-21-22-51-32-81-27z m44 33c13 7 26 21 30 35 6 15 4 36-4 50-24 44-88 42-110-3-5-11-7-31-4-43 10-37 54-56 88-39z m84-25c-23 13-26 15-26 24 0 7 6 13 13 13 5 0 36-17 42-23 6-6 6-15-1-20-3-2-7-4-8-4-1 0-10 4-20 10z m-269 67c-10 4-12 16-4 23 4 4 7 4 28 4 22 0 25 0 28-4 6-6 6-12 1-19-4-4-6-5-27-5-12 0-24 0-26 1z m265 1c-7 4-9 13-4 20 4 5 4 5 29 6 22 0 25 0 29-4 5-5 5-15 0-20-4-3-8-4-27-4-14-1-23 0-27 2z m-229 66c-11 6-21 13-22 15-6 8 0 21 11 21 8 0 44-22 46-28 3-8-4-19-13-19-1 0-11 5-22 11z m213-9c-2 1-5 5-5 7-3 11 0 15 21 27 22 13 30 14 35 4 6-10 2-15-21-29-22-12-22-12-30-9z m-160 47c-3 4-9 14-14 23-8 15-8 16-6 22 3 7 9 9 17 7 5-1 28-38 28-46 0-6-7-12-14-12-5 0-8 2-11 6z m116-3c-7 8-4 18 13 44 6 9 9 11 14 12 8 1 15-6 15-13 0-4-16-34-23-42-5-5-14-6-19-1z m-56 15c-5 4-5 6-6 27-1 22 0 24 4 29 5 7 14 8 20 2 4-4 4-7 4-28 0-23 0-24-5-29-6-6-11-6-17-1z"/>
<glyph glyph-name="deviation" unicode="&#51;" d="M283 89c-33 49-59 91-59 92 0 2 9 3 20 3l20 0 0 128 160 0 0-128 20 0c11 0 20-2 20-4 0-6-116-180-119-180-2 0-30 40-62 89z m-195 175l0 64-20 0c-11 0-20 2-20 4 0 6 116 180 119 180 3 0 121-176 121-181 0-2-9-3-20-3l-20 0 0-128-160 0z"/>
<glyph glyph-name="dewpoint" unicode="&#52;" d="M228 16c-17 3-42 12-52 19-4 2-6 4-6 3 0-3-30 24-42 38-10 11-23 36-25 47 0 3-2 6-2 7-1 1-3 11-5 21-5 38 2 77 24 129 10 22 32 65 37 74 3 3 8 12 12 19 3 7 12 22 20 34 7 11 15 24 18 29 2 4 9 15 15 24 7 9 14 21 17 27l5 11 10 0c9 0 11-1 15-6 3-3 5-7 5-8 0-1 4-7 9-14 4-6 8-12 8-13 0-1 1-3 3-5 2-1 4-4 5-7 1-2 8-13 15-24 21-32 45-74 56-96 3-6 6-12 7-12 1 0 2-1 2-3 0-1 3-10 7-19 4-8 8-17 9-20 1-2 3-7 4-10 12-28 17-54 18-84 0-32-2-45-18-76-9-19-13-24-28-39-31-31-69-47-111-47-12 0-26 1-32 1z m61 38c8 3 26 12 26 14 0 2 0 2-10-2-8-4-12-4-23-3-7 0-13 2-14 3 0 0-3 2-6 4-6 3-7 2-17-3-9-4-13-5-22-5-11 1-26 6-29 10-1 2-2 2-5 0-3-2-3-2 1-3 3-1 7-3 8-5 2-1 5-3 7-3 1 0 4 0 5-1 3-3 17-7 31-8 6-1 12-1 12-2 1 0 31 3 36 4z m35 16c2 1 2 2-2 2-3 0-5-1-5-2 0-3 3-3 7 0z m-155 33c3 3 5 8 5 11 0 8 8 15 18 15 9 0 16-6 18-16 2-11 13-18 18-13 1 1 3 1 4 1 1 0 4 5 6 12 4 13 8 16 18 16 10 0 16-4 17-14 2-15 13-21 24-13 2 1 4 5 4 9 0 3 2 8 5 12 4 5 7 6 13 6 11 0 16-5 20-17 2-9 3-11 9-12 8-3 9-1 19 19 18 33 19 69 3 115-2 7-5 15-7 18-1 4-2 6-2 6 1 0 0 3-1 6-2 3-10 19-18 35-8 16-17 33-19 38-3 4-7 11-9 14-1 4-5 9-7 13-2 3-5 8-7 12-4 6-19 30-25 40-2 2-5 6-6 8-1 2-3 5-5 7-1 2-4 6-5 9-2 5-3 5-14-12-28-44-40-64-46-74-3-6-8-15-11-19-10-16-45-89-45-96 0-2-1-6-3-9-1-3-4-13-6-22-6-30-2-70 11-91 12-21 15-22 24-14z"/>
<glyph glyph-name="dictionary" unicode="&#53;" d="M40 224l0 225 22 31 22 32 388 0 0-462-32-25-33-25-367 0z m385-159c7 5 7 20 7 207l0 200-326 0-7-12-7-12 312 0 0-198c0-217-2-202 21-185z m-105 94c37 20 38 86 1 103-13 6-27 6-42 0-6-2-7 0-7 24l0 26-36 0 0-156 16 0c9 0 16 2 16 4 0 2 6 1 13-2 17-8 23-7 39 1z m-192 15l5 18 20-1c20-1 20-1 25-17 4-16 4-16 25-17l20-1-9 29c-5 16-16 50-24 76l-14 47-23-1-23-1-9-30c-5-16-15-50-23-75l-13-45 38 0z m148 18c-12 21 2 51 21 44 13-4 19-28 9-42-8-12-24-14-30-2z m-135 38c1 3 4 12 5 20 4 19 8 18 14-4 6-23 6-22-8-22-10 0-12 2-11 6z"/>
<glyph glyph-name="disasters" unicode="&#54;" d="M146 19c-4 9-10 13-33 22-15 6-34 17-42 25-14 12-15 15-15 35 0 18 2 23 12 35 15 18 15 24 0 38-8 8-12 16-12 23 0 10 3 13 19 20 16 8 26 9 69 9 42 0 53-2 66-8 15-8 16-10 17-26 1-16 0-20-13-33-8-8-30-26-50-39-20-14-40-30-43-35-7-11-7-12 18-26 7-3 15-11 19-17 6-8 6-12 2-22-6-15-9-15-14-1z m36 165c46 8 42 22-8 29-51 8-114-6-97-21 14-11 65-15 105-8z m152-7l-19 61-5-18c-8-25-12-28-38-28l-24 0 0 18c0 17 0 18 15 19l15 1 14 43c13 41 14 43 24 42 9-1 11-6 28-58 10-31 19-57 20-59 2-1 8 14 14 34 18 55 26 57 44 12l12-29 5 13c5 12 6 12 29 12l24 0 0-16c0-16 0-16-13-16-12 0-14-2-23-24-12-31-18-38-28-32-4 2-8 6-8 8 0 2-4 12-8 23l-9 19-15-42c-12-37-16-42-24-43-10-1-11 1-30 60z m-295 134c-11 5-15 9-15 16 0 11 6 11 28 1 18-7 32-6 35 3 1 3-4 5-14 5-23 0-49 12-49 23 0 11 8 11 28 1 12-6 18-7 26-4 8 3 10 6 10 20l0 16-16 0c-9 0-16 1-16 2 0 2 7 11 16 22 14 16 16 21 16 38l0 18 17-1c15-1 18 1 32 16 9 9 18 17 21 17 2-1 16-14 30-29 14-16 35-39 47-52 11-12 21-24 21-27 0-2-7-4-16-4l-16 0 0-16c0-14 2-17 10-20 9-3 14-2 27 4 20 10 27 10 27-1 0-11-24-23-48-23-12 0-16-2-15-5 3-8 29-9 40-1 13 9 23 8 23-3 0-18-52-31-70-17-10 8-26 8-36 0-10-7-37-8-50 0-13 7-28 7-38 0-10-8-36-7-55 1z m136 20c1 3-5 5-17 5-19 0-24-6-9-12 10-3 24 0 26 7z m-2 29c5 4-9 20-17 20-14 0-23-22-9-25 8-2 21 0 26 5z"/>
<glyph glyph-name="distance" unicode="&#55;" d="M99 91c-43 87-45 92-46 121-1 26 0 32 8 48 21 38 65 58 107 48 26-6 50-25 63-48 8-16 9-22 8-48-1-29-3-34-46-121-24-50-45-91-47-91-2 0-23 41-47 91z m60 77c17 7 33 24 35 39 8 40-41 73-74 49-34-24-29-69 10-86 15-7 15-7 29-2z m5-166c0 1 10 22 23 48l23 46 22 4c67 14 91 55 74 126-3 13-6 29-6 36 0 18 12 42 30 59 14 13 59 39 70 39 9 0 3-12-14-26-22-18-34-37-34-54 0-7 5-26 11-42 9-23 11-35 11-68 0-38-1-42-13-66-7-16-21-34-31-44-21-19-66-41-100-50-28-6-66-11-66-8z m224 398c-25 52-29 68-18 88 8 16 23 24 44 24 16 0 21-2 32-14 21-20 20-37-10-98l-23-50z m40 48c4 4 8 12 8 16 0 10-14 24-24 24-10 0-24-14-24-24 0-10 14-24 24-24 4 0 12 4 16 8z"/>
<glyph glyph-name="doppler" unicode="&#56;" d="M210 31c-34 8-53 15-75 29-33 19-65 50-82 79-5 9-20 41-21 44 0 1-1 4-2 5-5 13-8 35-9 70 0 32 0 41 4 55 2 10 4 19 5 21 1 1 2 4 2 5 1 3 16 35 21 44 17 28 48 60 79 78 40 24 72 33 121 33 49 0 81-9 121-33 30-18 62-50 79-78 5-10 20-41 21-44 0-1 1-3 2-4 0-1 2-10 4-19 6-23 6-87 0-110-2-9-4-17-4-19-1-1-2-3-2-4-1-3-16-34-21-44-20-34-59-69-100-89-12-6-37-15-54-18-17-4-75-4-89-1z m34 33l0 25-16 2c-24 1-56 14-77 29-11 7-33 28-41 39-16 20-29 52-32 77l-1 15-23 0-24 1 2-14c2-18 6-37 12-56 6-14 18-40 22-43 0 0 3-4 4-7 6-12 36-41 55-54 31-21 57-31 100-38 3 0 8-1 12-1l7 0z m44-22c56 8 105 37 141 81 23 29 41 74 45 115l2 14-51 0-2-14c-3-38-32-85-67-111-28-21-67-37-91-37l-9 0 0-51 6 0c3 0 14 1 26 3z m-44 79l0 20-13 2c-22 4-41 15-61 35-20 20-31 39-35 61l-2 13-23 0c-25 0-23 2-20-20 2-12 15-47 18-50 1 0 3-4 5-8 12-20 38-43 64-57 15-7 46-16 59-16l8-1z m39-17c49 12 90 43 113 87 8 16 14 33 17 53l1 8-41 0-2-12c-8-47-55-91-104-98l-11-1 0-20c0-24-2-23 27-17z m-39 99l0 49-99 0 1-10c2-12 10-29 19-43 17-25 49-44 73-45l6 0z m48-42c17 7 27 14 40 28 12 12 26 39 28 53l1 10-105 0 0-99 11 1c6 1 17 4 25 7z m-215 113c4 40 14 67 35 94 7 10 26 29 37 37 26 18 49 27 87 32l8 1 0 46-14-2c-67-7-124-40-159-93-24-35-35-67-39-111l-2-14 46 0z m58 6c8 46 50 90 96 99l13 3 0 44-6 0c-11 0-33-5-46-10-23-10-36-19-56-38-16-16-20-21-28-39-6-11-11-22-12-24-2-5-8-36-8-44l0-7 45 0z m109 36l0 53-5 0c-9 0-31-9-42-16-12-8-31-26-31-29 0-1-2-4-3-5-6-5-16-32-17-44l-1-11 99 0z m80 26c-1 2-20 14-32 19-6 3-17 6-24 7l-12 1 0-96 34 34c18 19 34 34 34 35z m24 23l15 16-7 5c-21 18-49 32-75 37-27 5-25 6-25-19l0-22 16-3c18-3 45-15 53-23 3-3 6-6 7-6 0 0 8 7 16 15z m40 41l17 17-11 9c-23 19-43 30-70 40-13 5-50 11-63 11l-5 0 0-22c0-25 0-25 14-25 8 0 31-4 38-8 22-8 49-25 57-35 3-2 5-4 5-4 1 0 9 8 18 17z"/>
<glyph glyph-name="e" unicode="&#57;" d="M251 187c-174 67-174 72 8 140 90 33 142 49 150 42 6-6 2-28-12-62l-22-52 22-50c21-50 20-70-3-68-7 0-71 23-143 50z"/>
<glyph glyph-name="earthquake" unicode="&#33;" d="M227 85c-5 5-34 82-77 197-2 5-4 1-15-27-8-22-14-35-18-39l-6-6-98 0 0 53 30 1 29 1 5 11c18 45 33 83 41 102 11 27 18 36 30 36 16 0 14 5 72-145 7-18 16-39 19-47 3-8 6-15 6-15 0 1 10 24 22 53 29 72 31 74 37 80 8 6 20 5 27-2 3-3 15-25 27-49 12-24 22-43 23-43 1 0 4 7 9 15 13 26 10 25 65 25l48 0 0-54-31-1-30-1-7-12c-19-39-37-69-42-74-8-6-16-6-25-1-5 3-11 13-27 44-15 31-21 40-22 37-1-2-14-33-29-69-19-45-29-67-33-71-8-7-23-6-30 1z"/>
<glyph glyph-name="elevation" unicode="&#34;" d="M25 72c0 2 4 12 9 21 6 10 14 26 19 36 5 10 10 18 10 19 1 2 10 17 19 34 9 18 20 39 25 47 8 13 10 16 19 19l10 4 13-12c14-14 15-14 26-3 6 7 15 9 24 5 4-2 15-19 37-61 8-17 18-35 21-41 4-5 12-21 19-36 7-14 14-26 15-28 1-1 2-3 1-4-1-2-44-2-133-2-111 0-133 0-134 2z m271 19c-6 11-19 34-27 50-8 16-18 33-21 38-6 10-17 33-17 37 0 3 5 12 30 54 3 4 6 8 7 10 4 3 31 11 33 10 1-1 7-9 13-18l10-16 12 12 12 11 39-7 7-12c4-6 14-22 21-35 8-13 21-36 30-52 10-16 19-32 22-37 2-4 10-19 18-32 8-13 15-26 15-29l1-4-97-1-97 0z m-145 160c-10 8-12 9-18 8-8-1-12 2-8 6 1 2 19 34 27 49 5 9 9 10 12 2 1-3 8-17 16-32 8-14 15-27 15-29 0-2-2-3-8-2-6 1-8 1-15-5-4-3-9-6-10-6 0 0-6 4-11 9z m164 35c-4 7-9 13-11 13-1 0-7-1-12-3-18-5-18-3 1 29 8 13 18 30 22 38 4 8 8 14 10 14 2 0 16-21 30-47 4-8 10-19 13-24 15-23 14-24-8-20l-16 4-9-9c-4-5-9-9-10-9 0 0-5 6-10 14z"/>
<glyph glyph-name="elnino" unicode="&#35;" d="M344 281c-4 5-1 6 3 1 3-2 4-4 2-4-1 0-4 1-5 3z m25-2c5 2 7 9 6 23-1 7 0 20 1 28 1 14 1 13 2-16 0-33-1-36-9-36-3 0-4 1 0 1z m-28 31c-1 9 0 31 2 33 0 1 1-7 1-19 0-20-1-25-3-14z m-45 18c-5 4-8 9-8 12 0 3 11 15 33 37 29 28 37 35 37 32 0 0-15-15-33-33-21-20-33-34-33-37 0-6 10-15 17-15 4 0 8 3 19 14 8 8 15 14 15 14 1 0 1-1 1-3 0-2-1-3-1-3-1 1-8-5-16-13-16-16-20-16-31-5z m94 6c-8 8-15 16-15 17 1 1 8-5 16-13 17-16 22-17 31-8 3 3 6 7 6 9 0 2-15 19-33 37-18 18-32 33-32 34 1 0 17-15 35-33 38-38 38-38 25-51-10-9-15-8-33 8z m-352-294c-1 2-2 6-2 9 0 9 6 13 18 13 5 0 15 1 21 3 28 7 47 23 58 47 9 18 12 22 19 22 7 0 11-5 16-18 13-34 46-54 89-54 42 0 74 21 88 59 4 10 8 13 16 13 5 0 13-8 13-14 0-6 14-27 23-35 15-13 39-23 59-23 12 0 20-5 20-13 0-10-3-11-23-11-31 0-63 14-84 39l-10 11-13-15c-11-11-18-16-29-22-22-11-32-13-63-13-25 0-29 1-43 6-23 8-47 26-57 41-2 4-2 4-6-2-14-19-40-36-64-42-14-4-42-4-46-1z m4 109c-5 2-6 5-6 10 0 9 5 13 17 13 34 0 70 23 82 53 7 18 8 19 16 19 8 0 12-3 16-14 13-36 47-58 90-58 28 0 59 14 73 33 3 3 9 13 13 22 7 15 8 16 15 17 7 0 16-6 16-12 0-6 11-24 20-33 14-15 43-27 64-27 12 0 18-4 18-13 0-5-1-7-6-10-5-3-8-3-21-1-9 1-22 4-29 6-18 5-42 22-53 35l-8 11-7-10c-10-12-17-18-33-27-23-13-53-19-79-15-33 5-56 16-77 38l-11 12-12-12c-19-22-43-33-75-38-17-2-17-2-23 1z m99 117c-36 9-49 55-25 83l8 9 0 37c0 35 0 37 4 44 7 9 14 13 26 13 17 0 28-9 30-25 0-9 1-9 7-9 10 0 15-3 15-9 0-6-5-9-15-9-6 0-7 0-7-6 0-5 0-6 9-6 18-2 18-14 0-16-9 0-9 0-9-7 0-5 2-10 7-15 4-5 8-12 10-16 5-10 5-29 0-39-4-9-16-21-25-26-7-4-27-5-35-3z m-17 51c0 6 9 17 19 22l9 5 0 74 16 0-2 7c-2 9-5 11-12 11-11 0-12-3-12-46l0-39-8-8c-9-8-14-18-14-25 0-2 1-4 2-4 1 0 2 1 2 3z m226-40c2 2-7 10-8 10-1-1-2 4-2 11 0 9 1 12 2 9 1-3 2 3 2 17 0 13-1 20-2 19-1-1-2 0-2 1 0 1 1 2 2 2 1 0 2 1 2 3 0 2 0 3-1 3 0 0-7-6-15-14-11-11-15-14-19-14-7 0-17 9-17 15 0 3 13 17 34 38l34 34 34-34c19-19 34-36 34-38 0-2-3-6-6-9-9-9-14-8-31 8-8 8-15 13-16 12-1-1 0-2 1-3 1 0 0-8-1-16 0-9-1-22 0-29 1-14-1-22-6-22-2 0-3-1-2-2 1-1-2-2-8-2-5 0-9 1-9 1z"/>
<glyph glyph-name="ene" unicode="&#36;" d="M99 147c-11 17 211 230 235 226 13-2 15-16 13-58-4-54-2-58 39-98 42-40 50-54 34-64-4-4-77-9-161-13-121-5-153-4-160 7z"/>
<glyph glyph-name="ese" unicode="&#37;" d="M204 230c-58 57-106 111-108 119-4 20 33 23 183 17 159-8 173-17 111-71-42-37-45-42-47-102-2-46-8-63-19-66-9-1-63 44-120 103z"/>
</font>
</defs>
</svg>
